<svg width="492" height="417" viewBox="0 0 492 417" fill="none" xmlns="http://www.w3.org/2000/svg">
<path d="M71.9325 174.706C-23.9775 230.076 -23.9775 319.856 71.9325 375.226C167.843 430.596 323.353 430.606 419.253 375.226C515.153 319.846 515.163 230.076 419.253 174.706C323.342 119.336 167.833 119.306 71.9325 174.706Z" fill="#F5F5F5"/>
<path d="M443.732 174.676C443.232 175.166 442.432 175.846 441.412 176.676C435.022 182.116 420.132 194.766 418.252 212.406L416.192 211.876C416.012 192.546 429.642 172.736 439.022 168.726C439.075 168.704 439.123 168.672 439.164 168.631C439.204 168.59 439.236 168.542 439.257 168.489C439.279 168.436 439.289 168.379 439.289 168.322C439.288 168.265 439.275 168.208 439.252 168.156C439.206 168.051 439.121 167.968 439.014 167.925C438.908 167.882 438.789 167.882 438.682 167.926C429.222 171.926 415.222 191.366 415.322 211.656L413.932 211.296C413.412 209.536 410.352 197.296 418.862 181.146C420.287 178.449 421.926 175.871 423.762 173.436L423.852 173.336C429.772 165.626 436.782 161.226 441.592 162.796C442.704 163.09 443.717 163.675 444.527 164.49C445.337 165.306 445.916 166.322 446.202 167.436C446.454 168.753 446.359 170.113 445.926 171.383C445.493 172.652 444.737 173.787 443.732 174.676Z" fill="white"/>
<path d="M432.782 156.596C428.932 162.116 424.942 167.826 423.092 172.936C421.205 175.405 419.533 178.032 418.092 180.786C415.703 185.254 413.972 190.043 412.952 195.006C412.172 165.636 428.282 142.606 433.202 138.496C433.246 138.459 433.282 138.414 433.308 138.364C433.334 138.313 433.35 138.258 433.355 138.201C433.36 138.144 433.353 138.087 433.335 138.033C433.318 137.979 433.29 137.929 433.252 137.886C433.179 137.798 433.073 137.743 432.96 137.732C432.846 137.721 432.732 137.754 432.642 137.826C427.402 142.186 409.732 167.566 412.302 199.256C412.296 199.272 412.296 199.29 412.302 199.306C411.845 203.227 412.061 207.197 412.942 211.046L410.512 210.306C409.862 208.106 404.802 189.476 408.962 164.796C411.172 151.606 418.812 138.796 427.132 134.256C430.982 132.176 434.752 131.906 438.342 133.466C439.173 133.749 439.926 134.22 440.544 134.843C441.162 135.466 441.627 136.223 441.902 137.056C443.212 141.646 438.142 148.906 432.782 156.596Z" fill="white"/>
<path d="M447.052 167.306C446.725 166.048 446.074 164.899 445.163 163.972C444.252 163.045 443.114 162.374 441.862 162.026C437.242 160.516 430.792 164.026 425.032 170.586C424.382 171.336 423.732 172.126 423.092 172.956C421.205 175.425 419.533 178.051 418.092 180.806C415.703 185.273 413.972 190.063 412.952 195.026C412.652 196.536 412.452 198.026 412.312 199.326C411.855 203.247 412.071 207.217 412.952 211.066C413.072 211.566 413.162 211.846 413.172 211.866C413.211 211.966 413.286 212.048 413.382 212.096H413.462L415.562 212.636L418.502 213.386C418.558 213.4 418.617 213.4 418.672 213.386C418.74 213.376 418.805 213.352 418.862 213.316C418.913 213.28 418.954 213.233 418.985 213.18C419.016 213.126 419.036 213.067 419.042 213.006C420.652 195.456 435.582 182.766 441.962 177.346C442.962 176.476 443.802 175.786 444.322 175.266C445.421 174.284 446.25 173.036 446.728 171.642C447.206 170.248 447.317 168.755 447.052 167.306V167.306ZM443.732 174.696C443.232 175.186 442.432 175.866 441.412 176.696C435.022 182.136 420.132 194.786 418.252 212.426L416.192 211.896L415.322 211.676L413.932 211.316C413.412 209.556 410.352 197.316 418.862 181.166C420.287 178.469 421.926 175.891 423.762 173.456L423.852 173.356C429.772 165.646 436.782 161.246 441.592 162.816C442.704 163.11 443.717 163.695 444.527 164.51C445.337 165.326 445.916 166.342 446.202 167.456C446.451 168.77 446.353 170.126 445.92 171.392C445.488 172.657 444.734 173.789 443.732 174.676V174.696Z" fill="#BA68C8"/>
<path d="M439.022 168.766C429.642 172.766 416.022 192.586 416.192 211.916V212.306C416.196 212.409 416.161 212.51 416.095 212.59C416.028 212.669 415.935 212.721 415.832 212.736H415.762H415.582C415.509 212.699 415.447 212.644 415.403 212.575C415.359 212.507 415.335 212.427 415.332 212.346C415.332 212.156 415.332 211.966 415.332 211.776C415.232 191.486 429.232 172.066 438.692 168.046C438.799 168.002 438.918 168.002 439.024 168.045C439.131 168.088 439.216 168.171 439.262 168.276C439.285 168.373 439.274 168.474 439.23 168.564C439.186 168.653 439.113 168.724 439.022 168.766V168.766Z" fill="#BA68C8"/>
<path d="M433.492 157.096C430.338 161.367 427.51 165.87 425.032 170.566C424.592 171.506 424.202 172.416 423.882 173.316C423.882 173.316 423.482 173.636 423.322 173.576C423.214 173.535 423.126 173.454 423.078 173.349C423.029 173.244 423.024 173.124 423.062 173.016V172.936C424.912 167.826 428.902 162.116 432.752 156.596C438.112 148.906 443.182 141.646 441.882 137.056C441.607 136.223 441.142 135.466 440.524 134.843C439.906 134.22 439.153 133.748 438.322 133.466C434.732 131.906 430.962 132.176 427.112 134.256C418.792 138.766 411.112 151.606 408.942 164.796C404.782 189.476 409.842 208.106 410.492 210.306L412.922 211.046L413.682 211.276C413.794 211.31 413.887 211.387 413.941 211.491C413.996 211.594 414.007 211.714 413.972 211.826C413.947 211.903 413.9 211.971 413.839 212.024C413.777 212.077 413.702 212.112 413.622 212.126C413.56 212.14 413.495 212.14 413.432 212.126H413.352L410.012 211.126C409.944 211.104 409.882 211.067 409.832 211.016C409.781 210.966 409.744 210.904 409.722 210.836C409.662 210.646 403.632 191.056 408.072 164.696C410.342 151.266 418.162 138.156 426.692 133.536C430.792 131.316 434.822 131.036 438.692 132.716C439.631 133.055 440.479 133.604 441.172 134.322C441.866 135.039 442.386 135.906 442.692 136.856C444.152 141.806 438.982 149.236 433.492 157.096Z" fill="#BA68C8"/>
<path d="M433.202 138.496C428.282 142.606 412.202 165.636 412.952 195.006C412.952 196.386 413.062 197.786 413.172 199.186C413.184 199.295 413.153 199.405 413.086 199.492C413.019 199.58 412.921 199.638 412.812 199.656V199.656C412.705 199.662 412.599 199.629 412.514 199.563C412.429 199.497 412.372 199.401 412.352 199.296C412.346 199.279 412.346 199.262 412.352 199.246C409.782 167.556 427.452 142.176 432.692 137.816C432.782 137.744 432.896 137.711 433.01 137.722C433.124 137.733 433.229 137.788 433.302 137.876C433.338 137.922 433.365 137.976 433.379 138.033C433.394 138.09 433.396 138.149 433.387 138.207C433.378 138.265 433.356 138.321 433.325 138.371C433.293 138.42 433.251 138.463 433.202 138.496Z" fill="#BA68C8"/>
<path d="M272.932 30.4556L263.592 35.8456C263.592 35.4256 263.672 35.0156 263.672 34.6056V31.9056C263.672 27.0956 260.292 25.1456 256.122 27.5556C254.332 28.6555 252.801 30.1291 251.633 31.8756C250.953 25.8756 246.203 23.5756 240.443 26.8756C234.213 30.4656 229.163 39.2156 229.163 46.4156V50.4156C229.122 52.0306 229.447 53.6339 230.113 55.1056L222.372 59.5756C221.153 60.3666 220.137 61.4349 219.409 62.6931C218.681 63.9514 218.261 65.364 218.182 66.8156C218.182 69.4856 220.052 70.5656 222.372 69.2356L272.922 40.0456C274.14 39.2535 275.154 38.1848 275.88 36.9266C276.607 35.6684 277.025 34.2564 277.103 32.8056C277.113 30.2056 275.242 29.1256 272.932 30.4556Z" fill="#EBEBEB"/>
<path d="M330.062 36.3057L323.062 40.3657C323.062 40.0557 323.122 39.7457 323.122 39.4357V37.4357C323.122 33.8057 320.572 32.3357 317.432 34.1557C316.076 34.9826 314.916 36.095 314.033 37.4157C313.523 32.8457 309.942 31.1457 305.592 33.6657C300.892 36.3757 297.073 42.9757 297.073 48.4057V51.4057C297.039 52.6263 297.289 53.838 297.802 54.9457L291.913 58.3057C290.992 58.9014 290.226 59.7068 289.676 60.6559C289.127 61.605 288.81 62.6707 288.753 63.7657C288.753 65.7657 290.163 66.5957 291.913 65.5957L330.062 43.5957C330.981 42.9954 331.746 42.1876 332.295 41.2374C332.844 40.2873 333.161 39.2213 333.223 38.1257C333.223 36.0957 331.803 35.3057 330.062 36.3057Z" fill="#EBEBEB"/>
<path d="M273.593 343.556L266.113 339.236L271.553 336.096C272.529 335.622 273.352 334.883 273.928 333.963C274.504 333.044 274.809 331.981 274.809 330.896C274.809 329.811 274.504 328.748 273.928 327.828C273.352 326.908 272.529 326.169 271.553 325.696L258.013 317.876C256.377 317.016 254.556 316.566 252.708 316.566C250.859 316.566 249.039 317.016 247.403 317.876L238.263 323.156L191.043 295.886C189.42 294.995 187.593 294.543 185.743 294.576C183.888 294.536 182.056 294.988 180.433 295.886L161.133 307.036C159.753 307.741 158.566 308.77 157.673 310.036C156.8 311.548 156.536 313.336 156.933 315.036L166.933 365.036C167.513 367.546 169.393 369.736 172.523 371.546L186.033 379.306C187.648 380.205 189.474 380.657 191.323 380.616V380.616C193.164 380.653 194.983 380.201 196.593 379.306L235.003 357.136L246.183 363.586C247.82 364.443 249.64 364.89 251.488 364.89C253.335 364.89 255.155 364.443 256.793 363.586L273.593 353.956C274.572 353.485 275.398 352.747 275.977 351.827C276.555 350.907 276.862 349.842 276.862 348.756C276.862 347.669 276.555 346.604 275.977 345.684C275.398 344.765 274.572 344.027 273.593 343.556V343.556ZM199.213 345.696L196.973 334.436L207.843 340.716L199.213 345.696Z" fill="#E0E0E0"/>
<path d="M58.8825 339.656C66.614 342.476 73.9719 346.23 80.7925 350.836C88.4525 356.016 95.4625 362.306 103.592 366.576C114.212 372.166 126.432 374.186 138.392 373.576C145.162 373.246 152.532 371.766 156.892 366.426C158.071 365.087 158.774 363.396 158.892 361.616C158.892 359.016 157.162 356.776 155.322 354.976C145.592 345.436 131.842 341.496 118.592 338.406C105.342 335.316 97.4125 331.476 84.4225 324.536C78.8625 321.536 73.4225 318.366 67.7825 315.536L67.6425 315.466C64.8813 313.953 62.0405 312.591 59.1325 311.386C55.3025 309.976 52.1325 308.946 47.8925 309.266C43.6525 309.586 38.8925 309.516 35.9725 312.946C34.766 314.392 34.0002 316.153 33.7662 318.022C33.5322 319.891 33.8398 321.787 34.6525 323.486C38.7725 332.986 50.0225 336.426 58.8825 339.656Z" fill="#E0E0E0"/>
<path d="M348.783 265.756C345.393 263.606 341.652 261.346 337.652 259.036C333.652 256.726 329.652 254.546 325.742 252.466C320.459 249.762 314.909 247.614 309.182 246.056C303.063 244.39 296.755 243.516 290.413 243.456H289.592C283.188 243.49 276.811 244.282 270.592 245.816C263.473 247.601 256.644 250.392 250.312 254.106C243.422 258.106 238.572 262.106 235.502 266.276C232.292 270.686 230.742 275.146 230.892 279.546C231.149 284.177 232.956 288.587 236.022 292.066C239.32 295.94 243.191 299.285 247.502 301.986C251.002 304.206 254.833 306.516 258.883 308.856C262.933 311.196 266.882 313.356 270.532 315.286C275.821 317.983 281.374 320.128 287.103 321.686C293.218 323.357 299.523 324.231 305.862 324.286H306.742C313.147 324.254 319.525 323.462 325.742 321.926C332.863 320.142 339.692 317.351 346.022 313.636C352.922 309.636 357.772 305.636 360.832 301.466C364.052 297.066 365.603 292.596 365.443 288.196C365.189 283.564 363.381 279.154 360.312 275.676C356.996 271.802 353.108 268.457 348.783 265.756V265.756ZM325.783 292.236C325.433 292.766 324.463 293.876 321.783 295.416C319.77 296.616 317.584 297.5 315.302 298.036C313.68 298.394 312.024 298.578 310.362 298.586C309.922 298.586 309.483 298.586 309.043 298.586C306.999 298.458 304.982 298.061 303.043 297.406C300.907 296.674 298.833 295.771 296.842 294.706C289.568 290.994 282.491 286.905 275.642 282.456C274.086 281.524 272.649 280.405 271.362 279.126C270.701 278.514 270.215 277.738 269.952 276.876C269.952 276.756 269.843 276.366 270.383 275.536C270.733 275.016 271.703 273.906 274.383 272.356C276.394 271.154 278.58 270.274 280.862 269.746C282.412 269.401 283.995 269.223 285.582 269.216C286.072 269.216 286.583 269.216 287.013 269.266C289.056 269.416 291.072 269.826 293.013 270.486C295.171 271.216 297.279 272.088 299.323 273.096C306.593 276.876 313.742 280.996 320.592 285.306C322.177 286.271 323.655 287.4 325.003 288.676C325.638 289.221 326.101 289.941 326.332 290.746C326.312 290.896 326.392 291.306 325.802 292.236H325.783Z" fill="#E0E0E0"/>
<path d="M460.252 235.776L452.772 231.456L458.212 228.316C459.189 227.842 460.012 227.103 460.588 226.183C461.163 225.264 461.469 224.201 461.469 223.116C461.469 222.031 461.163 220.968 460.588 220.048C460.012 219.128 459.189 218.389 458.212 217.916L444.662 210.096C443.026 209.236 441.206 208.786 439.357 208.786C437.509 208.786 435.688 209.236 434.052 210.096L424.912 215.366L377.692 188.106C376.056 187.246 374.236 186.796 372.387 186.796C370.539 186.796 368.718 187.246 367.082 188.106L347.792 199.246C346.409 199.948 345.218 200.978 344.322 202.246C343.448 203.757 343.184 205.546 343.582 207.246L353.582 257.246C354.162 259.756 356.042 261.946 359.172 263.756L372.722 271.576C374.338 272.475 376.164 272.927 378.012 272.886V272.886C379.864 272.928 381.694 272.476 383.312 271.576L421.722 249.396L432.902 255.856C434.538 256.716 436.359 257.165 438.207 257.165C440.056 257.165 441.876 256.716 443.512 255.856L460.242 246.196C461.222 245.725 462.048 244.987 462.627 244.067C463.205 243.147 463.512 242.082 463.512 240.996C463.512 239.909 463.205 238.844 462.627 237.925C462.048 237.005 461.222 236.267 460.242 235.796L460.252 235.776ZM385.872 237.906L383.592 226.656L394.462 232.926L385.872 237.906Z" fill="#E0E0E0"/>
<path d="M352.082 342.306C352.347 342.182 352.636 342.118 352.927 342.118C353.219 342.118 353.508 342.182 353.772 342.306L357.082 344.226C357.179 344.264 357.263 344.33 357.324 344.415C357.384 344.5 357.418 344.601 357.422 344.706C357.417 344.811 357.382 344.912 357.322 344.999C357.262 345.085 357.179 345.153 357.082 345.196L342.283 353.746C342.02 353.877 341.731 353.945 341.438 353.945C341.144 353.945 340.855 353.877 340.592 353.746L320.413 342.096C320.316 342.052 320.233 341.984 320.172 341.898C320.11 341.812 320.072 341.711 320.062 341.606C320.073 341.501 320.111 341.4 320.173 341.314C320.234 341.229 320.317 341.16 320.413 341.116L334.973 332.716C335.233 332.584 335.521 332.515 335.812 332.515C336.104 332.515 336.392 332.584 336.652 332.716L339.962 334.626C340.06 334.667 340.144 334.735 340.206 334.822C340.268 334.908 340.305 335.01 340.312 335.116C340.304 335.221 340.266 335.322 340.205 335.409C340.143 335.495 340.059 335.563 339.962 335.606L330.342 341.156L333.723 343.106L342.652 337.946C342.915 337.815 343.204 337.746 343.497 337.746C343.791 337.746 344.08 337.815 344.342 337.946L347.652 339.856C347.749 339.898 347.832 339.966 347.892 340.053C347.952 340.139 347.987 340.241 347.992 340.346C347.986 340.45 347.95 340.551 347.89 340.638C347.83 340.724 347.748 340.792 347.652 340.836L338.712 345.986L342.212 347.986L352.082 342.306Z" fill="#455A64"/>
<path d="M357.022 326.506C357.285 326.374 357.574 326.306 357.867 326.306C358.161 326.306 358.45 326.374 358.712 326.506L361.862 328.326C361.959 328.368 362.042 328.436 362.102 328.523C362.162 328.609 362.197 328.71 362.202 328.816C362.195 328.92 362.16 329.021 362.1 329.108C362.04 329.194 361.958 329.262 361.862 329.306L359.022 330.946C357.102 332.046 357.102 333.156 359.022 334.256L366.702 338.696C366.8 338.737 366.884 338.805 366.946 338.892C367.008 338.978 367.045 339.08 367.052 339.186C367.044 339.291 367.006 339.392 366.945 339.479C366.883 339.565 366.799 339.633 366.702 339.676L362.772 341.946C362.51 342.077 362.221 342.145 361.927 342.145C361.634 342.145 361.345 342.077 361.082 341.946L346.522 333.536C346.414 333.505 346.318 333.439 346.25 333.349C346.182 333.259 346.145 333.149 346.145 333.036C346.145 332.923 346.182 332.813 346.25 332.722C346.318 332.632 346.414 332.567 346.522 332.536L350.152 330.446C350.413 330.314 350.701 330.245 350.992 330.245C351.284 330.245 351.572 330.314 351.832 330.446L352.552 330.856C352.596 330.259 352.808 329.687 353.163 329.206C353.704 328.519 354.386 327.956 355.163 327.556L357.022 326.506Z" fill="#455A64"/>
<path d="M372.142 317.776C372.4 317.637 372.69 317.568 372.983 317.576C373.278 317.568 373.571 317.637 373.832 317.776L376.983 319.596C377.079 319.638 377.162 319.706 377.222 319.793C377.282 319.879 377.317 319.98 377.323 320.086C377.316 320.19 377.28 320.291 377.22 320.378C377.16 320.464 377.078 320.532 376.983 320.576L374.142 322.216C372.222 323.316 372.222 324.422 374.142 325.536L381.823 329.966C381.92 330.006 382.004 330.074 382.065 330.16C382.125 330.247 382.159 330.35 382.163 330.456C382.156 330.56 382.12 330.661 382.06 330.748C382 330.834 381.918 330.902 381.823 330.946L377.892 333.216C377.63 333.347 377.341 333.415 377.047 333.415C376.754 333.415 376.465 333.347 376.202 333.216L361.642 324.806C361.547 324.765 361.464 324.699 361.404 324.614C361.344 324.529 361.309 324.429 361.302 324.326C361.308 324.22 361.343 324.119 361.403 324.033C361.463 323.946 361.546 323.878 361.642 323.836L365.272 321.746C365.53 321.606 365.82 321.537 366.112 321.546C366.405 321.538 366.695 321.607 366.952 321.746L367.672 322.156C367.716 321.559 367.928 320.987 368.283 320.506C368.824 319.819 369.506 319.256 370.283 318.856L372.142 317.776Z" fill="#455A64"/>
<path d="M399.003 310.306C399.343 310.476 399.753 310.696 400.243 310.976C400.733 311.256 401.113 311.496 401.413 311.696C402.262 312.192 402.987 312.876 403.533 313.696C403.976 314.38 404.18 315.193 404.112 316.006C403.998 316.903 403.618 317.745 403.023 318.426C402.204 319.364 401.226 320.15 400.133 320.746C398.877 321.472 397.532 322.034 396.133 322.416C394.768 322.785 393.365 322.996 391.952 323.046C390.61 323.089 389.268 322.975 387.952 322.706C386.734 322.468 385.555 322.057 384.452 321.486C384.122 321.316 383.713 321.086 383.223 320.806C382.733 320.526 382.343 320.286 382.053 320.096C381.184 319.609 380.444 318.924 379.892 318.096C379.453 317.402 379.256 316.583 379.332 315.766C379.456 314.866 379.838 314.022 380.433 313.336C381.232 312.383 382.206 311.593 383.303 311.006C384.556 310.277 385.901 309.719 387.302 309.346C388.682 308.981 390.097 308.77 391.523 308.716C392.864 308.662 394.208 308.773 395.523 309.046C396.737 309.296 397.909 309.721 399.003 310.306V310.306ZM389.883 318.166C390.727 318.581 391.662 318.781 392.603 318.746C393.549 318.708 394.473 318.441 395.293 317.966C396.123 317.486 396.573 316.966 396.633 316.416C396.693 315.866 396.363 315.346 395.633 314.846C395.312 314.61 394.978 314.393 394.633 314.196C394.266 313.986 393.889 313.796 393.503 313.626C392.663 313.204 391.731 313.004 390.793 313.046C389.846 313.078 388.922 313.342 388.103 313.816C387.273 314.306 386.823 314.816 386.763 315.376C386.703 315.936 387.033 316.446 387.763 316.946C388.081 317.181 388.415 317.395 388.763 317.586C389.124 317.792 389.498 317.976 389.883 318.136V318.166Z" fill="#455A64"/>
<path d="M407.122 297.576C407.385 297.444 407.674 297.376 407.967 297.376C408.261 297.376 408.55 297.444 408.812 297.576L411.973 299.396C412.068 299.439 412.15 299.507 412.21 299.594C412.27 299.68 412.306 299.781 412.312 299.886C412.307 299.991 412.272 300.092 412.212 300.179C412.152 300.265 412.069 300.333 411.973 300.376L409.122 302.016C407.216 303.116 407.216 304.222 409.122 305.336L416.812 309.766C416.908 309.809 416.99 309.877 417.05 309.964C417.11 310.05 417.146 310.151 417.152 310.256C417.147 310.361 417.112 310.462 417.052 310.549C416.992 310.635 416.909 310.703 416.812 310.746L412.872 313.016C412.615 313.154 412.325 313.223 412.033 313.216C411.74 313.224 411.45 313.155 411.193 313.016L396.592 304.616C396.496 304.573 396.412 304.505 396.35 304.419C396.289 304.332 396.251 304.231 396.242 304.126C396.25 304.02 396.287 303.918 396.349 303.832C396.411 303.745 396.495 303.677 396.592 303.636L400.212 301.546C400.475 301.414 400.764 301.346 401.057 301.346C401.351 301.346 401.64 301.414 401.902 301.546L402.622 301.956C402.662 301.358 402.874 300.785 403.233 300.306C403.771 299.616 404.454 299.053 405.233 298.656L407.122 297.576Z" fill="#455A64"/>
<path d="M270.233 333.886L253.493 343.546C252.424 344.085 251.244 344.365 250.048 344.365C248.851 344.365 247.671 344.085 246.603 343.546L233.603 336.026L193.303 359.306C192.229 359.839 191.046 360.116 189.848 360.116C188.649 360.116 187.466 359.839 186.393 359.306L172.853 351.476C170.633 350.209 169.353 348.832 169.013 347.346L159.013 297.466C158.961 297.172 158.938 296.874 158.943 296.576C158.943 297.576 158.943 309.986 158.943 310.576C158.948 310.834 158.971 311.091 159.013 311.346L169.013 361.226C169.353 362.706 170.633 364.082 172.853 365.356L186.393 373.176C187.464 373.715 188.648 373.996 189.848 373.996C191.047 373.996 192.231 373.715 193.303 373.176L233.593 349.926L246.593 357.446C247.661 357.985 248.841 358.265 250.038 358.265C251.234 358.265 252.414 357.985 253.483 357.446L270.223 347.786C270.619 347.615 270.961 347.338 271.21 346.985C271.459 346.632 271.605 346.217 271.633 345.786V331.886C271.605 332.315 271.46 332.729 271.213 333.082C270.966 333.434 270.627 333.713 270.233 333.886V333.886Z" fill="#7D1935"/>
<path d="M269.592 327.936V314.036C269.561 314.465 269.413 314.878 269.164 315.231C268.916 315.583 268.577 315.861 268.182 316.036L257.182 322.376L269.052 329.226C269.382 328.875 269.574 328.417 269.592 327.936V327.936Z" fill="#7D1935"/>
<path d="M193.373 325.976L201.703 330.806L213.753 323.856L190.233 310.266L193.363 325.976H193.373Z" fill="#7D1935"/>
<path opacity="0.35" d="M193.373 325.976L201.703 330.806L213.753 323.856L190.233 310.266L193.363 325.976H193.373Z" fill="black"/>
<path opacity="0.2" d="M269.592 327.936V314.036C269.561 314.465 269.413 314.878 269.164 315.231C268.916 315.583 268.577 315.861 268.182 316.036L257.182 322.376L269.052 329.226C269.382 328.875 269.574 328.417 269.592 327.936V327.936Z" fill="black"/>
<path opacity="0.2" d="M270.232 333.886L253.492 343.546C252.437 344.124 251.245 344.407 250.042 344.366V358.306C251.245 358.347 252.437 358.064 253.492 357.486L270.232 347.826C270.629 347.655 270.971 347.378 271.22 347.025C271.469 346.672 271.615 346.257 271.642 345.826V331.926C271.607 332.349 271.457 332.755 271.208 333.1C270.96 333.446 270.623 333.717 270.232 333.886Z" fill="black"/>
<path opacity="0.25" d="M169.013 347.306L159.013 297.426C158.961 297.132 158.938 296.834 158.943 296.536C158.943 297.536 158.943 309.946 158.943 310.536C158.948 310.794 158.971 311.051 159.013 311.306L169.013 361.186C169.08 361.478 169.184 361.76 169.323 362.026V348.126C169.186 347.866 169.082 347.591 169.013 347.306V347.306Z" fill="black"/>
<path opacity="0.35" d="M189.853 360.086C188.649 360.118 187.457 359.839 186.393 359.276L172.853 351.446C171.372 350.729 170.142 349.582 169.323 348.156V362.056C170.142 363.482 171.372 364.629 172.853 365.346L186.393 373.165C187.454 373.738 188.647 374.021 189.853 373.986C189.979 374 190.106 374 190.233 373.986V360.086C190.106 360.1 189.979 360.1 189.853 360.086V360.086Z" fill="black"/>
<path opacity="0.2" d="M193.303 359.306C192.359 359.816 191.305 360.084 190.233 360.086V373.986C191.306 373.985 192.362 373.713 193.303 373.196L233.593 349.926V336.026L193.303 359.306Z" fill="black"/>
<path opacity="0.35" d="M246.593 343.546L233.593 336.026V349.926L246.593 357.446C247.644 358.025 248.833 358.308 250.033 358.266V344.366C248.833 344.408 247.644 344.125 246.593 343.546V343.546Z" fill="black"/>
<path d="M253.493 343.546C252.422 344.085 251.241 344.365 250.043 344.365C248.844 344.365 247.663 344.085 246.593 343.546L233.593 336.026L193.303 359.306C192.231 359.839 191.05 360.116 189.853 360.116C188.655 360.116 187.474 359.839 186.403 359.306L172.853 351.486C170.646 350.206 169.369 348.829 169.023 347.356L159.023 297.476C158.822 296.707 158.911 295.893 159.273 295.186C159.86 294.442 160.604 293.838 161.453 293.416L180.743 282.276C181.804 281.706 182.998 281.426 184.203 281.466C185.401 281.426 186.588 281.705 187.643 282.276L236.723 310.606L247.723 304.266C248.793 303.727 249.974 303.446 251.173 303.446C252.371 303.446 253.552 303.727 254.623 304.266L268.172 312.086C268.591 312.226 268.955 312.495 269.213 312.854C269.471 313.213 269.61 313.644 269.61 314.086C269.61 314.528 269.471 314.958 269.213 315.317C268.955 315.676 268.591 315.945 268.172 316.086L257.172 322.436L270.172 329.956C270.587 330.101 270.945 330.372 271.199 330.73C271.453 331.088 271.589 331.517 271.589 331.956C271.589 332.395 271.453 332.823 271.199 333.181C270.945 333.539 270.587 333.81 270.172 333.956L253.493 343.546ZM213.743 323.846L190.233 310.306L195.093 334.656L213.743 323.846Z" fill="#7D1935"/>
<path d="M360.213 272.176C360.153 275.526 358.833 278.946 356.293 282.426C353.573 286.166 349.016 289.879 342.623 293.566C336.599 297.106 330.1 299.766 323.323 301.466C317.109 303.011 310.725 303.767 304.323 303.716C298.301 303.663 292.311 302.833 286.503 301.246C281.017 299.76 275.701 297.705 270.643 295.116C266.983 293.196 263.163 291.116 259.143 288.766C255.123 286.416 251.393 284.206 247.903 281.986C243.92 279.499 240.345 276.412 237.303 272.836C234.749 269.991 233.24 266.362 233.023 262.546C233.093 264.746 232.933 274.006 233.023 276.446C233.24 280.262 234.749 283.891 237.303 286.736C240.345 290.312 243.92 293.399 247.903 295.886C251.389 298.106 255.136 300.366 259.143 302.666C263.143 304.976 266.983 307.096 270.643 309.026C275.704 311.608 281.019 313.659 286.503 315.146C292.311 316.733 298.301 317.563 304.323 317.616C310.725 317.667 317.109 316.911 323.323 315.366C330.1 313.666 336.599 311.006 342.623 307.466C349.023 303.772 353.579 300.059 356.293 296.326C359.023 292.596 360.293 288.936 360.193 285.376C360.123 283.306 360.253 275.306 360.213 272.176Z" fill="#7D1935"/>
<path opacity="0.35" d="M307.753 303.646C306.613 303.646 305.473 303.736 304.343 303.716C298.321 303.663 292.331 302.833 286.523 301.246C281.037 299.76 275.721 297.705 270.663 295.116C267.003 293.196 263.183 291.116 259.163 288.766C255.143 286.416 251.413 284.206 247.923 281.986C243.94 279.499 240.365 276.412 237.323 272.836C234.769 269.991 233.26 266.362 233.043 262.546C233.113 264.746 232.953 274.006 233.043 276.446C233.26 280.262 234.769 283.891 237.323 286.736C240.365 290.312 243.94 293.399 247.923 295.886C251.409 298.106 255.156 300.366 259.163 302.666C263.163 304.976 267.003 307.096 270.663 309.026C275.724 311.608 281.039 313.659 286.523 315.146C292.331 316.733 298.321 317.563 304.343 317.616C305.473 317.616 306.613 317.616 307.753 317.546V303.646Z" fill="black"/>
<path opacity="0.2" d="M360.212 272.176C360.152 275.526 358.833 278.946 356.293 282.426C353.573 286.166 349.016 289.879 342.622 293.566C336.599 297.105 330.1 299.766 323.323 301.466C318.223 302.716 313.01 303.447 307.763 303.646V317.546C313.009 317.342 318.222 316.611 323.323 315.366C330.1 313.666 336.599 311.005 342.622 307.466C349.022 303.772 353.579 300.059 356.293 296.326C359.023 292.596 360.293 288.936 360.193 285.376C360.123 283.306 360.252 275.306 360.212 272.176Z" fill="black"/>
<path d="M267.223 264.796C267.996 265.588 268.828 266.32 269.712 266.986C270.142 266.706 270.572 266.426 271.052 266.146C273.4 264.771 275.942 263.76 278.593 263.146C280.964 262.618 283.399 262.436 285.823 262.606C288.175 262.777 290.497 263.244 292.733 263.996C295.075 264.79 297.366 265.728 299.593 266.806C306.999 270.706 314.156 274.842 321.063 279.216C321.963 279.776 322.792 280.356 323.552 280.916C325.074 280.022 326.398 278.827 327.443 277.406C328.32 276.19 328.68 274.676 328.443 273.196C328.078 271.655 327.255 270.26 326.082 269.196C324.543 267.731 322.85 266.437 321.033 265.336C314.119 260.936 306.973 256.792 299.593 252.906C297.376 251.819 295.095 250.871 292.763 250.066C290.527 249.314 288.205 248.847 285.853 248.676C283.429 248.505 280.993 248.69 278.623 249.226C275.971 249.834 273.428 250.846 271.082 252.226C269.038 253.269 267.251 254.755 265.853 256.576C265.409 257.165 265.091 257.839 264.919 258.557C264.747 259.274 264.724 260.019 264.853 260.746C265.266 262.283 266.084 263.682 267.223 264.796V264.796Z" fill="#7D1935"/>
<path opacity="0.35" d="M267.223 264.796C267.996 265.588 268.828 266.32 269.712 266.986C270.142 266.706 270.572 266.426 271.052 266.146C273.4 264.771 275.942 263.76 278.593 263.146C280.964 262.618 283.399 262.436 285.823 262.606C288.175 262.777 290.497 263.244 292.733 263.996C295.075 264.79 297.366 265.728 299.593 266.806C306.999 270.706 314.156 274.842 321.063 279.216C321.963 279.776 322.792 280.356 323.552 280.916C325.074 280.022 326.398 278.827 327.443 277.406C328.32 276.19 328.68 274.676 328.443 273.196C328.078 271.655 327.255 270.26 326.082 269.196C324.543 267.731 322.85 266.437 321.033 265.336C314.119 260.936 306.973 256.792 299.593 252.906C297.376 251.819 295.095 250.871 292.763 250.066C290.527 249.314 288.205 248.847 285.853 248.676C283.429 248.505 280.993 248.69 278.623 249.226C275.971 249.834 273.428 250.846 271.082 252.226C269.038 253.269 267.251 254.755 265.853 256.576C265.409 257.165 265.091 257.839 264.919 258.557C264.747 259.274 264.724 260.019 264.853 260.746C265.266 262.283 266.084 263.682 267.223 264.796V264.796Z" fill="black"/>
<path d="M250.593 240.446C256.615 236.902 263.114 234.242 269.892 232.546C276.107 231.005 282.49 230.249 288.892 230.296C294.917 230.352 300.909 231.183 306.723 232.766C312.21 234.254 317.529 236.309 322.593 238.896C326.426 240.896 330.346 243.059 334.353 245.385C338.359 247.712 342.026 249.926 345.353 252.026C349.333 254.515 352.908 257.601 355.952 261.176C358.498 264.026 360.01 267.651 360.243 271.466C360.369 275.032 359.069 278.699 356.343 282.466C353.616 286.232 349.033 289.932 342.593 293.566C336.569 297.105 330.07 299.766 323.293 301.466C317.078 303.006 310.695 303.762 304.293 303.716C298.267 303.661 292.274 302.827 286.463 301.236C280.98 299.753 275.668 297.702 270.612 295.116C266.952 293.196 263.119 291.082 259.112 288.776C255.106 286.469 251.356 284.206 247.863 281.986C243.884 279.493 240.31 276.407 237.263 272.836C234.714 269.983 233.203 266.354 232.973 262.536C232.853 258.976 234.153 255.309 236.873 251.536C239.593 247.762 244.166 244.066 250.593 240.446ZM321.033 265.306C314.119 260.932 306.963 256.802 299.563 252.915C297.345 251.822 295.06 250.87 292.723 250.066C290.49 249.314 288.172 248.844 285.823 248.665C283.398 248.503 280.963 248.691 278.593 249.226C275.941 249.834 273.398 250.846 271.052 252.226C269.008 253.269 267.221 254.755 265.823 256.576C265.376 257.163 265.057 257.838 264.885 258.556C264.713 259.273 264.691 260.019 264.823 260.746C265.226 262.271 266.042 263.655 267.183 264.746C268.686 266.245 270.365 267.558 272.183 268.656C279.119 273.156 286.285 277.291 293.653 281.046C295.806 282.199 298.051 283.175 300.362 283.966C303.938 285.197 307.739 285.634 311.501 285.245C315.263 284.856 318.894 283.652 322.142 281.716C324.195 280.674 325.986 279.184 327.383 277.356C328.259 276.143 328.618 274.633 328.383 273.156C328.021 271.611 327.193 270.215 326.013 269.156C324.497 267.696 322.827 266.405 321.033 265.306Z" fill="#7D1935"/>
<path d="M456.913 226.106L440.173 235.766C439.104 236.304 437.924 236.585 436.728 236.585C435.531 236.585 434.351 236.304 433.283 235.766L420.283 228.236L380.023 251.486C378.952 252.025 377.771 252.305 376.573 252.305C375.374 252.305 374.193 252.025 373.123 251.486L359.573 243.666C357.353 242.396 356.083 241.016 355.733 239.536L345.733 189.656C345.682 189.362 345.658 189.064 345.663 188.766C345.663 189.766 345.663 202.176 345.663 202.766C345.668 203.024 345.692 203.281 345.733 203.536L355.733 253.406C356.083 254.896 357.353 256.266 359.573 257.546L373.123 265.366C374.193 265.905 375.374 266.185 376.573 266.185C377.771 266.185 378.952 265.905 380.023 265.366L420.283 242.116L433.283 249.646C434.351 250.184 435.531 250.465 436.728 250.465C437.924 250.465 439.104 250.184 440.173 249.646L456.913 239.986C457.309 239.815 457.651 239.538 457.9 239.185C458.149 238.832 458.295 238.417 458.323 237.986V224.106C458.294 224.536 458.147 224.951 457.898 225.304C457.65 225.656 457.309 225.934 456.913 226.106V226.106Z" fill="#7D1935"/>
<path d="M456.283 220.146V206.246C456.251 206.675 456.103 207.088 455.854 207.441C455.606 207.793 455.267 208.071 454.872 208.246L443.872 214.586L455.742 221.426C456.076 221.081 456.269 220.625 456.283 220.146Z" fill="#7D1935"/>
<path d="M380.053 218.196L388.383 223.026L400.433 216.076L376.913 202.486L380.043 218.196H380.053Z" fill="#7D1935"/>
<path opacity="0.35" d="M380.053 218.196L388.383 223.026L400.433 216.076L376.913 202.486L380.043 218.196H380.053Z" fill="black"/>
<path opacity="0.2" d="M456.283 220.146V206.246C456.251 206.675 456.103 207.088 455.854 207.441C455.606 207.793 455.267 208.071 454.872 208.246L443.872 214.586L455.742 221.426C456.076 221.081 456.269 220.625 456.283 220.146Z" fill="black"/>
<path opacity="0.2" d="M456.913 226.105L440.173 235.765C439.117 236.344 437.925 236.627 436.723 236.585V250.485C437.925 250.527 439.117 250.244 440.173 249.665L456.913 240.005C457.309 239.835 457.651 239.557 457.9 239.204C458.149 238.851 458.295 238.437 458.323 238.005V224.105C458.294 224.536 458.147 224.951 457.898 225.303C457.65 225.656 457.309 225.934 456.913 226.105V226.105Z" fill="black"/>
<path opacity="0.25" d="M355.693 239.536L345.693 189.656C345.642 189.362 345.618 189.064 345.622 188.766C345.622 189.766 345.622 202.176 345.622 202.766C345.628 203.024 345.652 203.281 345.693 203.536L355.693 253.406C355.758 253.703 355.865 253.989 356.013 254.256V240.356C355.869 240.098 355.761 239.822 355.693 239.536Z" fill="black"/>
<path opacity="0.35" d="M376.533 252.305C375.33 252.341 374.14 252.058 373.082 251.485L359.533 243.665C358.052 242.952 356.824 241.804 356.013 240.375V254.305C356.824 255.734 358.052 256.882 359.533 257.595L373.082 265.415C374.14 265.988 375.33 266.271 376.533 266.235C376.659 266.25 376.786 266.25 376.913 266.235V252.305C376.786 252.32 376.659 252.32 376.533 252.305V252.305Z" fill="black"/>
<path opacity="0.2" d="M379.983 251.486C379.043 252.005 377.986 252.276 376.913 252.276V266.176C377.986 266.176 379.043 265.905 379.983 265.386L420.243 242.136V228.236L379.983 251.486Z" fill="black"/>
<path opacity="0.35" d="M433.283 235.766L420.283 228.236V242.136L433.283 249.666C434.334 250.245 435.523 250.528 436.723 250.486V236.586C435.523 236.628 434.334 236.345 433.283 235.766V235.766Z" fill="black"/>
<path d="M440.182 235.766C439.122 236.34 437.928 236.62 436.723 236.576C435.521 236.614 434.331 236.334 433.272 235.766L420.272 228.246L380.013 251.486C378.941 252.019 377.76 252.296 376.563 252.296C375.365 252.296 374.184 252.019 373.112 251.486L359.563 243.666C357.356 242.386 356.079 241.009 355.733 239.536L345.733 189.656C345.537 188.887 345.626 188.074 345.983 187.366C346.57 186.622 347.314 186.018 348.163 185.596L367.452 174.456C368.524 173.917 369.708 173.636 370.908 173.636C372.107 173.636 373.291 173.917 374.362 174.456L423.432 202.786L434.432 196.436C435.504 195.903 436.685 195.625 437.883 195.625C439.08 195.625 440.261 195.903 441.332 196.436L454.872 204.306C455.291 204.446 455.655 204.715 455.913 205.074C456.171 205.433 456.31 205.864 456.31 206.306C456.31 206.748 456.171 207.178 455.913 207.537C455.655 207.896 455.291 208.165 454.872 208.306L443.872 214.656L456.872 222.176C457.287 222.321 457.645 222.592 457.899 222.95C458.153 223.308 458.289 223.737 458.289 224.176C458.289 224.615 458.153 225.043 457.899 225.401C457.645 225.759 457.287 226.03 456.872 226.176L440.182 235.766ZM400.432 216.066L376.913 202.496L381.772 226.836L400.432 216.066Z" fill="#7D1935"/>
<path d="M306.842 166.766C307.712 162.706 291.142 172.276 290.272 176.336L295.592 190.706C295.786 191.122 296.099 191.47 296.492 191.706C297.662 192.426 301.982 194.866 302.352 195.096C302.652 195.279 302.99 195.392 303.339 195.426C303.689 195.46 304.042 195.414 304.371 195.292C304.7 195.169 304.998 194.974 305.24 194.72C305.483 194.466 305.665 194.16 305.772 193.826L312.692 170.096C313.132 168.146 306.842 166.766 306.842 166.766Z" fill="#7D1935"/>
<path opacity="0.25" d="M306.842 166.766C307.712 162.706 291.142 172.276 290.272 176.336L295.592 190.706C295.786 191.122 296.099 191.47 296.492 191.706C297.662 192.426 301.982 194.866 302.352 195.096C302.652 195.279 302.99 195.392 303.339 195.426C303.689 195.46 304.042 195.414 304.371 195.292C304.7 195.169 304.998 194.974 305.24 194.72C305.483 194.466 305.665 194.16 305.772 193.826L312.692 170.096C313.132 168.146 306.842 166.766 306.842 166.766Z" fill="black"/>
<path d="M358.672 59.0657L220.402 138.836C219.754 139.257 219.214 139.825 218.826 140.494C218.439 141.163 218.215 141.914 218.172 142.686V218.686C218.215 219.458 218.439 220.209 218.826 220.878C219.214 221.547 219.754 222.115 220.402 222.536L221.792 223.326C222.482 223.676 223.244 223.859 224.017 223.859C224.791 223.859 225.553 223.676 226.242 223.326L364.522 143.466C365.17 143.042 365.708 142.472 366.094 141.801C366.48 141.131 366.702 140.378 366.742 139.606V63.6957C366.702 62.9244 366.48 62.1736 366.094 61.5045C365.708 60.8354 365.17 60.267 364.522 59.8457L363.132 59.0557C362.44 58.7075 361.676 58.527 360.901 58.5287C360.127 58.5304 359.363 58.7144 358.672 59.0657V59.0657Z" fill="#7D1935"/>
<path opacity="0.25" d="M358.672 59.0657L220.402 138.836C219.754 139.257 219.214 139.825 218.826 140.494C218.439 141.163 218.215 141.914 218.172 142.686V218.686C218.215 219.458 218.439 220.209 218.826 220.878C219.214 221.547 219.754 222.115 220.402 222.536L221.792 223.326C222.482 223.676 223.244 223.859 224.017 223.859C224.791 223.859 225.553 223.676 226.242 223.326L364.522 143.466C365.17 143.042 365.708 142.472 366.094 141.801C366.48 141.131 366.702 140.378 366.742 139.606V63.6957C366.702 62.9244 366.48 62.1736 366.094 61.5045C365.708 60.8354 365.17 60.267 364.522 59.8457L363.132 59.0557C362.44 58.7075 361.676 58.527 360.901 58.5287C360.127 58.5304 359.363 58.7144 358.672 59.0657V59.0657Z" fill="black"/>
<path d="M366.752 63.6957V64.5657C366.75 64.2053 366.653 63.8518 366.471 63.5406C366.289 63.2294 366.029 62.9713 365.716 62.7922C365.404 62.613 365.049 62.519 364.689 62.5197C364.329 62.5203 363.975 62.6155 363.662 62.7957L227.082 141.706C226.148 142.232 225.373 143.003 224.842 143.936V144.006L218.842 140.536C219.221 139.844 219.773 139.262 220.442 138.846L358.712 59.0657C359.404 58.7221 360.165 58.5433 360.937 58.5433C361.71 58.5433 362.471 58.7221 363.162 59.0657L364.552 59.8557C365.194 60.2794 365.727 60.8475 366.109 61.5144C366.491 62.1812 366.711 62.9283 366.752 63.6957Z" fill="#7D1935"/>
<path opacity="0.45" d="M366.752 63.6957V64.5657C366.75 64.2053 366.653 63.8518 366.471 63.5406C366.289 63.2294 366.029 62.9713 365.716 62.7922C365.404 62.613 365.049 62.519 364.689 62.5197C364.329 62.5203 363.975 62.6155 363.662 62.7957L227.082 141.706C226.148 142.232 225.373 143.003 224.842 143.936V144.006L218.842 140.536C219.221 139.844 219.773 139.262 220.442 138.846L358.712 59.0657C359.404 58.7221 360.165 58.5433 360.937 58.5433C361.71 58.5433 362.471 58.7221 363.162 59.0657L364.552 59.8557C365.194 60.2794 365.727 60.8475 366.109 61.5144C366.491 62.1812 366.711 62.9283 366.752 63.6957Z" fill="white"/>
<path d="M364.693 63.3056C364.474 63.3063 364.26 63.365 364.073 63.4756L227.483 142.396C226.675 142.862 226.004 143.532 225.537 144.34C225.07 145.147 224.824 146.063 224.823 146.996V221.076C224.823 221.496 224.913 222.476 225.723 222.476C226.078 222.46 226.424 222.349 226.723 222.156L297.593 181.236L302.023 193.526C302.212 193.954 302.526 194.314 302.924 194.559C303.323 194.804 303.786 194.923 304.253 194.899C304.72 194.875 305.169 194.71 305.541 194.426C305.912 194.141 306.188 193.751 306.333 193.306L312.333 172.726L363.333 143.286C365.183 142.226 366.003 141.146 366.003 139.796V64.5656C366.004 64.3955 365.971 64.2268 365.905 64.0699C365.839 63.913 365.742 63.7713 365.619 63.6533C365.496 63.5353 365.351 63.4436 365.192 63.3839C365.032 63.3241 364.862 63.2975 364.693 63.3056V63.3056Z" fill="white"/>
<path d="M225.722 223.306C224.722 223.306 224.032 222.446 224.032 221.116V146.996C224.035 145.924 224.318 144.873 224.853 143.945C225.388 143.017 226.157 142.245 227.082 141.706L363.672 62.8056C363.975 62.6259 364.32 62.5293 364.672 62.5256C365.199 62.5383 365.7 62.7531 366.073 63.1255C366.445 63.4978 366.66 63.9992 366.672 64.5256V139.756C366.672 141.916 364.912 143.176 363.602 143.936L312.992 173.306L307.082 193.576C306.897 194.182 306.529 194.717 306.029 195.108C305.53 195.499 304.923 195.727 304.289 195.762C303.656 195.797 303.027 195.637 302.487 195.303C301.948 194.969 301.524 194.478 301.272 193.896L297.142 182.456L227.092 222.846C226.685 223.119 226.212 223.278 225.722 223.306V223.306ZM364.722 64.1556C364.642 64.1565 364.563 64.1771 364.492 64.2156L227.912 143.116C227.224 143.513 226.652 144.084 226.254 144.772C225.855 145.46 225.645 146.241 225.642 147.036V221.116C225.624 221.331 225.669 221.546 225.772 221.736C225.969 221.691 226.158 221.617 226.332 221.516L298.022 180.116L302.752 193.306C302.877 193.578 303.082 193.806 303.339 193.959C303.596 194.113 303.894 194.185 304.192 194.166C304.501 194.152 304.797 194.043 305.042 193.856C305.287 193.668 305.469 193.41 305.562 193.116L311.642 172.246L311.912 172.086L362.912 142.646C364.912 141.496 365.192 140.586 365.192 139.846V64.5656C365.191 64.5026 365.177 64.4404 365.151 64.383C365.125 64.3256 365.087 64.2742 365.04 64.232C364.993 64.1898 364.938 64.1577 364.878 64.1376C364.819 64.1176 364.755 64.1101 364.692 64.1156L364.722 64.1556Z" fill="#7D1935"/>
<path d="M240.283 166.306C240.37 163.894 240.705 161.498 241.283 159.156C241.851 156.808 242.68 154.53 243.753 152.366C244.804 150.26 246.11 148.292 247.643 146.506C249.144 144.757 250.929 143.273 252.923 142.116C254.502 141.103 256.319 140.52 258.193 140.426C259.616 140.384 261.004 140.868 262.093 141.786C263.262 142.843 264.117 144.203 264.563 145.716C265.183 147.657 265.52 149.678 265.563 151.716C265.623 153.476 265.653 155.326 265.653 157.286C265.653 159.246 265.653 161.076 265.563 162.816C265.473 165.227 265.138 167.622 264.563 169.966C263.997 172.321 263.168 174.605 262.093 176.776C261.053 178.897 259.742 180.873 258.193 182.656C256.69 184.385 254.908 185.852 252.923 186.996C251.343 188.024 249.524 188.624 247.643 188.736C246.22 188.78 244.833 188.292 243.753 187.366C242.584 186.279 241.731 184.897 241.283 183.366C240.663 181.424 240.327 179.403 240.283 177.366C240.233 175.696 240.203 173.886 240.203 171.936C240.203 169.986 240.233 168.106 240.283 166.306ZM258.053 166.826C258.053 166.066 258.113 165.216 258.143 164.286C258.173 163.356 258.143 162.416 258.143 161.456C258.143 160.496 258.143 159.586 258.143 158.706C258.143 157.826 258.083 157.046 258.053 156.356C258.022 155.468 257.881 154.588 257.633 153.736C257.449 153.087 257.105 152.496 256.633 152.016C256.211 151.615 255.654 151.39 255.073 151.386C254.292 151.421 253.536 151.667 252.883 152.096C252.057 152.572 251.319 153.188 250.703 153.916C250.078 154.653 249.553 155.471 249.143 156.346C248.706 157.249 248.371 158.198 248.143 159.176C247.912 160.202 247.768 161.245 247.713 162.296C247.663 163.026 247.623 163.846 247.613 164.746C247.603 165.646 247.613 166.576 247.613 167.536C247.613 168.496 247.613 169.426 247.613 170.326C247.613 171.226 247.613 172.046 247.713 172.766C247.672 174.336 248.165 175.873 249.113 177.126C249.933 178.026 251.179 177.992 252.853 177.026C254.522 176.067 255.832 174.588 256.583 172.816C257.43 170.917 257.928 168.881 258.053 166.806V166.826Z" fill="#455A64"/>
<path d="M290.932 145.836C290.932 146.436 290.932 147.236 290.932 148.206C290.932 149.176 290.932 149.996 290.932 150.636C290.869 152.703 290.57 154.756 290.042 156.756C289.514 158.787 288.766 160.756 287.812 162.626C286.891 164.45 285.742 166.15 284.392 167.686C283.113 169.154 281.604 170.403 279.922 171.386C278.576 172.242 277.035 172.745 275.442 172.846C274.205 172.906 272.989 172.511 272.022 171.736C270.999 170.86 270.231 169.723 269.802 168.446C269.226 166.806 268.922 165.083 268.902 163.346C268.902 162.736 268.902 161.946 268.902 160.966C268.902 159.986 268.902 159.186 268.902 158.546C268.943 156.486 269.228 154.438 269.752 152.446C270.285 150.409 271.04 148.438 272.002 146.566C272.944 144.736 274.098 143.024 275.442 141.466C276.716 139.978 278.231 138.713 279.922 137.726C281.265 136.875 282.805 136.385 284.392 136.306C285.635 136.276 286.85 136.675 287.832 137.436C288.868 138.307 289.64 139.45 290.062 140.736C290.618 142.38 290.912 144.101 290.932 145.836V145.836ZM276.192 158.836C276.272 160.376 276.642 161.396 277.302 161.906C277.962 162.416 278.842 162.356 279.922 161.736C281.053 161.062 281.96 160.071 282.532 158.886C283.214 157.534 283.593 156.049 283.642 154.536C283.692 153.886 283.722 153.166 283.722 152.376C283.722 151.586 283.722 150.896 283.642 150.296C283.562 148.769 283.192 147.749 282.532 147.236C281.872 146.726 281.002 146.776 279.922 147.406C278.794 148.081 277.885 149.067 277.302 150.246C276.622 151.602 276.244 153.089 276.192 154.606C276.142 155.256 276.112 155.976 276.112 156.766C276.112 157.556 276.142 158.236 276.192 158.826V158.836Z" fill="#455A64"/>
<path d="M307.452 155.496C306.816 155.889 306.115 156.166 305.383 156.316C304.875 156.423 304.35 156.423 303.843 156.316C303.44 156.203 303.067 156.001 302.753 155.726C302.478 155.493 302.233 155.228 302.022 154.936V168.216C302.016 168.69 301.906 169.157 301.702 169.586C301.55 169.971 301.28 170.3 300.933 170.526L295.832 173.526C295.718 173.61 295.578 173.65 295.436 173.639C295.295 173.628 295.162 173.567 295.063 173.466C294.942 173.331 294.85 173.172 294.793 173C294.737 172.828 294.716 172.646 294.733 172.466V131.476C294.738 131 294.851 130.532 295.063 130.106C295.215 129.72 295.485 129.392 295.832 129.166L300.733 126.336C300.847 126.251 300.987 126.211 301.129 126.222C301.27 126.233 301.403 126.295 301.503 126.396C301.62 126.533 301.709 126.692 301.764 126.863C301.819 127.035 301.839 127.216 301.823 127.396V128.836C302.063 128.276 302.332 127.686 302.612 127.066C302.903 126.426 303.254 125.817 303.663 125.246C304.118 124.611 304.634 124.022 305.202 123.486C305.884 122.851 306.64 122.301 307.452 121.846C308.496 121.204 309.673 120.811 310.892 120.696C311.407 120.66 311.924 120.731 312.411 120.903C312.898 121.075 313.344 121.345 313.723 121.696C314.666 122.61 315.356 123.754 315.723 125.016C316.28 126.926 316.56 128.906 316.552 130.896C316.552 131.496 316.552 132.336 316.552 133.396C316.552 134.456 316.552 135.306 316.552 135.946C316.518 138.245 316.24 140.535 315.723 142.776C315.259 144.706 314.589 146.58 313.723 148.366C312.981 149.919 312.029 151.363 310.892 152.656C309.901 153.776 308.74 154.734 307.452 155.496V155.496ZM309.272 139.356C309.353 138.194 309.353 137.028 309.272 135.866C309.269 134.714 308.947 133.586 308.343 132.606C307.803 131.836 306.893 131.816 305.623 132.546C305.035 132.891 304.517 133.342 304.093 133.876C303.661 134.419 303.298 135.013 303.013 135.646C302.733 136.291 302.512 136.96 302.353 137.646C302.187 138.302 302.076 138.971 302.022 139.646C301.972 140.296 301.943 141.046 301.943 141.876C301.943 142.706 301.942 143.416 302.022 144.006C302.065 144.557 302.175 145.102 302.353 145.626C302.488 146.07 302.713 146.481 303.013 146.836C303.292 147.143 303.678 147.332 304.093 147.366C304.636 147.374 305.17 147.217 305.623 146.916C306.875 146.204 307.838 145.075 308.343 143.726C308.884 142.328 309.198 140.853 309.272 139.356V139.356Z" fill="#455A64"/>
<path d="M332.303 130.796C332.303 130.336 332.203 130.046 332.003 129.906C331.681 129.781 331.324 129.781 331.003 129.906C330.348 130.071 329.703 130.275 329.073 130.516C328.283 130.806 327.293 131.136 326.073 131.516C324.019 132.116 322.439 131.862 321.333 130.756C320.223 129.656 319.672 127.686 319.672 124.866C319.681 123.396 319.913 121.935 320.363 120.536C320.835 119.037 321.48 117.597 322.283 116.246C323.127 114.842 324.134 113.543 325.283 112.376C326.437 111.204 327.746 110.194 329.172 109.376C330.359 108.642 331.677 108.146 333.053 107.916C334.081 107.731 335.14 107.807 336.133 108.136C336.959 108.441 337.663 109.01 338.133 109.756C338.644 110.555 338.93 111.477 338.963 112.426C338.986 112.898 338.882 113.367 338.663 113.786C338.506 114.191 338.231 114.54 337.873 114.786L333.053 117.566C332.753 117.736 332.523 117.776 332.343 117.666C332.144 117.545 331.936 117.438 331.723 117.346C331.421 117.225 331.096 117.177 330.773 117.206C330.185 117.294 329.625 117.513 329.133 117.846C328.537 118.179 328.008 118.62 327.573 119.146C327.167 119.619 326.944 120.222 326.943 120.846C326.903 121.192 326.973 121.541 327.142 121.846C327.282 122.012 327.552 122.052 327.952 121.966C328.528 121.826 329.095 121.655 329.653 121.456C330.383 121.196 331.343 120.876 332.533 120.456C334.983 119.666 336.772 119.906 337.892 121.196C339.123 122.819 339.72 124.834 339.573 126.866C339.562 128.342 339.33 129.808 338.883 131.216C338.404 132.764 337.732 134.245 336.883 135.626C335.964 137.11 334.877 138.482 333.642 139.716C332.35 141.003 330.894 142.116 329.313 143.026C328.008 143.838 326.558 144.389 325.043 144.646C323.996 144.818 322.922 144.694 321.943 144.286C321.131 143.92 320.458 143.303 320.023 142.526C319.566 141.725 319.309 140.826 319.273 139.906C319.248 139.434 319.352 138.964 319.573 138.546C319.729 138.14 320.004 137.791 320.363 137.546L325.363 134.646C325.663 134.476 325.873 134.466 326.013 134.646C326.166 134.814 326.341 134.962 326.533 135.086C326.813 135.25 327.138 135.324 327.463 135.296C328.12 135.205 328.746 134.962 329.293 134.586C330.081 134.133 330.79 133.556 331.392 132.876C331.957 132.328 332.283 131.581 332.303 130.796Z" fill="#455A64"/>
<path d="M350.592 114.896C350.586 115.37 350.476 115.837 350.272 116.266C350.119 116.651 349.85 116.98 349.502 117.206L344.402 120.156C344.288 120.24 344.148 120.28 344.006 120.269C343.865 120.258 343.732 120.197 343.632 120.096C343.513 119.96 343.423 119.801 343.368 119.629C343.313 119.457 343.294 119.275 343.312 119.096V92.2357C343.313 91.7606 343.423 91.2921 343.632 90.8657C343.785 90.4801 344.055 90.1516 344.402 89.9257L349.502 86.9257C349.617 86.8415 349.757 86.8012 349.899 86.8122C350.04 86.8232 350.173 86.8848 350.272 86.9857C350.39 87.1223 350.479 87.2812 350.534 87.4531C350.589 87.6249 350.609 87.8061 350.592 87.9857V114.896ZM350.592 128.296C350.587 128.77 350.478 129.238 350.272 129.666C350.119 130.051 349.85 130.38 349.502 130.606L344.402 133.556C344.288 133.64 344.148 133.68 344.006 133.669C343.865 133.658 343.732 133.597 343.632 133.496C343.513 133.36 343.422 133.202 343.367 133.029C343.312 132.857 343.293 132.675 343.312 132.496V126.196C343.313 125.721 343.423 125.252 343.632 124.826C343.785 124.44 344.055 124.112 344.402 123.886L349.502 120.886C349.617 120.801 349.757 120.761 349.899 120.772C350.04 120.783 350.173 120.845 350.272 120.946C350.39 121.083 350.479 121.242 350.534 121.413C350.589 121.585 350.609 121.766 350.592 121.946V128.296Z" fill="#455A64"/>
<path d="M154.212 160.586C154.958 162.034 155.509 163.574 155.852 165.166C156.592 169.106 155.172 173.076 154.382 176.996C154.122 178.326 154.032 179.546 154.982 180.586C155.067 180.701 155.179 180.793 155.308 180.854C155.437 180.916 155.58 180.944 155.722 180.936C155.962 180.876 156.122 180.636 156.252 180.426C157.196 178.812 157.948 177.094 158.492 175.306C158.601 176.997 158.544 178.695 158.322 180.376C158.031 181.693 158.031 183.058 158.322 184.376C158.742 185.656 160.182 186.686 161.322 186.056C162.024 185.523 162.499 184.744 162.652 183.876L163.582 180.876C164.038 179.481 164.416 178.063 164.712 176.626C165.188 174.036 165.147 171.378 164.593 168.804C164.039 166.23 162.982 163.79 161.482 161.626C160.758 160.462 159.718 159.529 158.482 158.936C157.9 158.704 157.275 158.603 156.649 158.64C156.024 158.676 155.414 158.849 154.862 159.146C154.092 159.566 153.842 159.836 154.212 160.586Z" fill="#F28F8F"/>
<path d="M167.012 167.466C166.582 162.216 166.402 156.716 165.422 151.746C164.442 146.776 162.362 127.666 161.422 122.356C160.192 115.356 158.522 110.976 157.502 106.646C156.352 101.806 155.392 95.1857 153.362 84.6457C151.332 74.1057 148.842 68.2057 143.632 64.8057C139.796 62.2029 135.268 60.8097 130.632 60.8057C129.452 64.0457 130.542 75.3857 130.542 75.3857C130.542 75.3857 135.542 99.5657 136.082 102.536C136.622 105.506 141.972 119.096 145.552 130.156C147.602 136.506 150.702 145.436 150.702 145.436C151.642 149.386 151.972 150.646 151.182 153.776C150.852 155.096 150.322 156.356 149.992 157.676C149.633 159.115 149.412 160.585 149.332 162.066C149.282 163.066 149.332 164.066 149.242 165.066C149.152 166.916 148.852 168.756 148.632 170.596C148.482 171.946 149.262 172.776 150.632 172.356C151.621 171.976 152.427 171.232 152.882 170.276C153.457 168.922 153.856 167.5 154.072 166.046C154.232 165.356 155.072 161.206 156.382 162.336C157.502 163.286 158.692 166.526 160.162 168.726C160.958 169.693 161.546 170.813 161.89 172.018C162.234 173.222 162.327 174.484 162.162 175.726C161.912 179.076 160.312 183.556 160.852 186.386C161.392 189.216 162.972 189.826 163.542 188.656C164.112 187.486 165.842 180.656 166.422 178.286C167.21 174.736 167.409 171.08 167.012 167.466V167.466Z" fill="#FFA8A7"/>
<path d="M154.042 163.746C160.132 166.426 167.722 167.886 171.042 180.886C174.362 193.886 178.292 241.656 178.292 241.656C176.709 243.652 174.686 245.256 172.381 246.342C170.075 247.428 167.55 247.967 165.002 247.916L165.542 261.546C165.542 261.546 156.642 265.826 143.382 262.476C136.952 260.856 132.992 254.976 132.992 254.976C132.992 254.976 134.502 216.406 135.552 201.676C136.602 186.946 137.942 156.556 154.042 163.746Z" fill="#455A64"/>
<path d="M162.852 195.456C162.852 195.456 164.472 234.456 165.002 247.916C166.482 247.917 167.957 247.735 169.392 247.376L162.852 195.456Z" fill="#37474F"/>
<path d="M149.222 165.036C149.132 166.886 148.832 168.726 148.612 170.566C148.462 171.916 149.242 172.746 150.612 172.326C151.601 171.946 152.407 171.202 152.862 170.246C153.437 168.892 153.836 167.47 154.052 166.016C154.172 165.486 154.682 162.936 155.512 162.276L149.322 162.046C149.262 163.036 149.272 164.036 149.222 165.036ZM155.502 162.276H156.352C156.295 162.22 156.228 162.177 156.154 162.149C156.08 162.12 156 162.107 155.921 162.11C155.842 162.113 155.764 162.131 155.692 162.165C155.62 162.199 155.555 162.246 155.502 162.306V162.276Z" fill="#FFA8A7"/>
<path d="M136.232 60.0957C146.102 64.1557 149.233 67.4257 151.143 73.4057C153.053 79.3857 156.063 94.5057 157.053 101.076C158.043 107.646 160.522 113.556 161.902 122.146C163.282 130.736 164.643 143.306 164.643 143.306C164.643 143.306 162.852 145.606 157.452 145.926C152.052 146.246 149.242 144.296 149.242 144.296C149.242 144.296 143.503 127.146 141.333 121.416C139.163 115.686 134.193 101.416 134.193 101.416L136.232 60.0957Z" fill="#E6E6E6"/>
<path d="M51.7925 298.756L58.3825 300.776L59.3725 296.026L53.9725 296.536L51.7925 298.756Z" fill="black"/>
<path d="M53.5925 285.476C53.5925 285.476 50.8325 288.646 49.9825 289.656C49.1325 290.666 51.0925 297.366 51.7825 298.756L53.9625 296.536C54.1825 298.226 53.8225 299.886 53.4725 302.476C53.1825 304.626 52.1025 308.296 52.9825 312.046C54.2925 317.616 58.6425 323.276 64.0725 327.776C69.5025 332.276 73.7425 333.356 76.2625 333.376C78.7825 333.396 80.3725 332.376 81.0625 330.636C81.7525 328.896 53.5925 285.476 53.5925 285.476Z" fill="#263238"/>
<path d="M77.2725 285.616L78.8325 283.736C79.8825 284.496 77.8325 287.386 77.4625 290.996C76.8156 296.342 76.8593 301.75 77.5925 307.086C79.2825 316.596 81.8325 323.726 82.5925 327.986C83.5925 333.696 73.8425 334.066 65.1325 326.546C60.8025 322.806 54.5225 314.356 54.3225 309.946C54.1225 305.536 55.9425 300.306 55.6225 296.946C55.3025 293.586 52.9425 288.666 53.6225 285.446C54.0025 283.676 56.6225 280.906 59.0025 278.616C61.1525 276.526 63.0025 271.996 64.0725 273.306L63.2725 274.866C63.0225 276.316 63.9725 279.686 67.1425 283.106C68.7025 284.846 74.0125 289.186 77.2725 285.616Z" fill="#455A64"/>
<path opacity="0.15" d="M69.9725 285.486C71.8325 286.676 74.1425 287.536 76.0825 286.536C76.0825 286.536 76.1325 286.536 76.1525 286.536C75.5389 287.127 75.0685 287.85 74.7774 288.651C74.4862 289.452 74.3819 290.308 74.4725 291.156C74.6325 294.316 74.5725 315.676 74.5725 315.676C74.5725 315.676 73.5725 297.216 73.3025 293.676C72.9625 288.496 72.3825 287.476 69.9625 285.476L69.9725 285.486Z" fill="black"/>
<path d="M82.5925 327.986C81.9725 324.386 80.0525 318.736 78.4525 311.336C78.2325 313.626 78.7225 315.906 78.4525 316.526C77.8425 318.066 72.7425 316.936 69.9925 315.786C67.2425 314.636 67.1825 309.376 66.0925 303.786C65.0025 298.196 59.3825 299.406 55.0925 302.676C54.589 305.049 54.3376 307.469 54.3425 309.896C54.5425 314.306 60.8225 322.756 65.1525 326.496C73.8225 334.066 83.5925 333.696 82.5925 327.986Z" fill="#37474F"/>
<path opacity="0.15" d="M69.5025 290.796C69.404 290.892 69.2793 290.957 69.1439 290.983C69.0085 291.009 68.8685 290.994 68.7414 290.941C68.6143 290.888 68.5059 290.798 68.4296 290.683C68.3533 290.568 68.3126 290.434 68.3126 290.296C68.3126 290.158 68.3533 290.023 68.4296 289.908C68.5059 289.793 68.6143 289.704 68.7414 289.65C68.8685 289.597 69.0085 289.582 69.1439 289.608C69.2793 289.634 69.404 289.699 69.5025 289.796C69.569 289.861 69.6219 289.939 69.6579 290.025C69.694 290.11 69.7126 290.203 69.7126 290.296C69.7126 290.389 69.694 290.481 69.6579 290.567C69.6219 290.653 69.569 290.731 69.5025 290.796Z" fill="black"/>
<path opacity="0.15" d="M69.9025 295.836C69.804 295.932 69.6793 295.997 69.5439 296.023C69.4085 296.049 69.2685 296.034 69.1414 295.981C69.0143 295.928 68.9059 295.838 68.8296 295.723C68.7533 295.608 68.7126 295.474 68.7126 295.336C68.7126 295.198 68.7533 295.063 68.8296 294.948C68.9059 294.834 69.0143 294.744 69.1414 294.69C69.2685 294.637 69.4085 294.622 69.5439 294.648C69.6793 294.674 69.804 294.739 69.9025 294.836C69.969 294.901 70.0218 294.979 70.0579 295.065C70.094 295.15 70.1126 295.243 70.1126 295.336C70.1126 295.429 70.094 295.521 70.0579 295.607C70.0218 295.693 69.969 295.771 69.9025 295.836Z" fill="black"/>
<path opacity="0.15" d="M70.3025 300.876C70.2368 300.941 70.1589 300.993 70.0731 301.029C69.9873 301.064 69.8954 301.083 69.8025 301.083C69.7096 301.083 69.6177 301.064 69.5319 301.029C69.4461 300.993 69.3682 300.941 69.3025 300.876C69.2368 300.81 69.1848 300.732 69.1492 300.646C69.1137 300.56 69.0954 300.468 69.0954 300.376C69.0954 300.283 69.1137 300.191 69.1492 300.105C69.1848 300.019 69.2368 299.941 69.3025 299.876C69.4355 299.744 69.6152 299.67 69.8025 299.67C69.9898 299.67 70.1695 299.744 70.3025 299.876C70.369 299.941 70.4219 300.019 70.4579 300.104C70.494 300.19 70.5126 300.282 70.5126 300.376C70.5126 300.469 70.494 300.561 70.4579 300.647C70.4219 300.733 70.369 300.81 70.3025 300.876Z" fill="black"/>
<path opacity="0.15" d="M70.7125 305.916C70.5795 306.047 70.3998 306.122 70.2125 306.122C70.0252 306.122 69.8455 306.047 69.7125 305.916C69.646 305.85 69.5931 305.773 69.557 305.687C69.521 305.601 69.5024 305.509 69.5024 305.416C69.5024 305.322 69.521 305.23 69.557 305.144C69.5931 305.059 69.646 304.981 69.7125 304.916C69.8451 304.783 70.0249 304.708 70.2125 304.708C70.4 304.708 70.5799 304.783 70.7125 304.916C70.8451 305.048 70.9196 305.228 70.9196 305.416C70.9196 305.603 70.8451 305.783 70.7125 305.916Z" fill="black"/>
<path opacity="0.15" d="M71.1125 310.966C70.9795 311.097 70.7998 311.171 70.6125 311.171C70.4252 311.171 70.2455 311.097 70.1125 310.966C70.046 310.9 69.9931 310.823 69.9571 310.737C69.921 310.651 69.9024 310.559 69.9024 310.466C69.9024 310.372 69.921 310.28 69.9571 310.194C69.9931 310.108 70.046 310.031 70.1125 309.966C70.2486 309.852 70.4222 309.794 70.5993 309.802C70.7763 309.81 70.944 309.883 71.0693 310.009C71.1946 310.134 71.2685 310.302 71.2765 310.479C71.2845 310.656 71.226 310.829 71.1125 310.966V310.966Z" fill="black"/>
<path d="M68.8125 290.516C68.7856 290.496 68.7635 290.47 68.7479 290.441C68.7323 290.412 68.7236 290.379 68.7225 290.346C68.7169 290.309 68.7186 290.271 68.7277 290.235C68.7367 290.199 68.7529 290.165 68.7753 290.135C68.7976 290.105 68.8257 290.08 68.8578 290.062C68.89 290.043 68.9256 290.03 68.9625 290.026C69.1625 290.026 73.8325 289.486 77.1825 292.386C77.2395 292.435 77.2747 292.504 77.2803 292.579C77.286 292.654 77.2616 292.729 77.2125 292.786C77.1634 292.843 77.0937 292.878 77.0187 292.883C76.9437 292.889 76.8695 292.865 76.8125 292.816C73.6525 290.076 69.0825 290.586 69.0325 290.586C68.9929 290.595 68.9514 290.594 68.9126 290.582C68.8737 290.569 68.8391 290.547 68.8125 290.516V290.516Z" fill="#263238"/>
<path d="M69.2225 295.556C69.1963 295.533 69.1748 295.505 69.1594 295.475C69.1439 295.444 69.1348 295.41 69.1325 295.376C69.1269 295.339 69.1287 295.302 69.1379 295.267C69.147 295.231 69.1633 295.198 69.1858 295.169C69.2083 295.14 69.2364 295.116 69.2685 295.098C69.3006 295.08 69.336 295.069 69.3725 295.066C69.5725 295.066 74.2425 294.515 77.5925 297.415C77.6495 297.465 77.6847 297.534 77.6903 297.609C77.696 297.684 77.6716 297.759 77.6225 297.816C77.5734 297.873 77.5037 297.908 77.4287 297.913C77.3537 297.919 77.2795 297.895 77.2225 297.846C74.0625 295.106 69.4925 295.616 69.4425 295.626C69.4029 295.63 69.3629 295.626 69.3249 295.614C69.287 295.602 69.2521 295.582 69.2225 295.556V295.556Z" fill="#263238"/>
<path d="M69.5925 300.606C69.5433 300.557 69.5117 300.494 69.5025 300.426C69.4969 300.389 69.4987 300.352 69.5079 300.317C69.5171 300.281 69.5334 300.248 69.5558 300.219C69.5783 300.19 69.6064 300.166 69.6385 300.148C69.6706 300.13 69.706 300.119 69.7425 300.116C69.9425 300.116 74.6125 299.566 77.9625 302.466C78.0195 302.515 78.0547 302.584 78.0604 302.659C78.066 302.734 78.0416 302.809 77.9925 302.866C77.9434 302.923 77.8737 302.958 77.7987 302.963C77.7237 302.969 77.6495 302.945 77.5925 302.896C74.4325 300.156 69.8625 300.666 69.8125 300.676C69.773 300.68 69.7331 300.675 69.6952 300.663C69.6574 300.651 69.6224 300.632 69.5925 300.606V300.606Z" fill="#263238"/>
<path d="M70.0125 305.646C69.9633 305.597 69.9316 305.534 69.9225 305.466C69.914 305.393 69.9343 305.32 69.9792 305.262C70.0241 305.204 70.0899 305.166 70.1625 305.156C70.3625 305.156 75.0325 304.606 78.3825 307.506C78.4339 307.56 78.4625 307.631 78.4625 307.706C78.4625 307.78 78.4339 307.852 78.3825 307.906C78.3564 307.932 78.3253 307.953 78.291 307.968C78.2566 307.982 78.2197 307.99 78.1825 307.99C78.1452 307.99 78.1084 307.982 78.074 307.968C78.0397 307.953 78.0086 307.932 77.9825 307.906C74.8225 305.166 70.2525 305.676 70.2025 305.686C70.1364 305.694 70.0694 305.68 70.0125 305.646V305.646Z" fill="#263238"/>
<path d="M70.4125 310.686C70.3633 310.637 70.3316 310.574 70.3225 310.506C70.3169 310.469 70.319 310.431 70.3288 310.395C70.3386 310.358 70.3557 310.325 70.3792 310.296C70.4028 310.266 70.4321 310.243 70.4654 310.225C70.4986 310.208 70.5351 310.198 70.5725 310.196C70.7625 310.196 75.4325 309.646 78.7825 312.546C78.8332 312.598 78.8615 312.668 78.8615 312.741C78.8615 312.813 78.8332 312.883 78.7825 312.936C78.7564 312.962 78.7253 312.983 78.691 312.998C78.6566 313.012 78.6197 313.02 78.5825 313.02C78.5452 313.02 78.5084 313.012 78.474 312.998C78.4397 312.983 78.4086 312.962 78.3825 312.936C75.2325 310.206 70.6525 310.706 70.6025 310.716C70.5376 310.728 70.4706 310.717 70.4125 310.686Z" fill="#263238"/>
<path d="M144.352 139.796C144.352 139.796 145.072 152.286 144.452 178.256C143.932 199.986 146.332 211.256 137.612 225.096C129.822 237.446 81.2025 284.626 77.6925 288.906C77.6925 288.906 62.3025 290.306 61.5525 274.536C61.5525 274.536 75.8825 248.946 82.6425 234.436C89.4025 219.926 98.6425 212.966 98.6425 212.966L86.0125 149.706L144.352 139.796Z" fill="#263238"/>
<path d="M91.3825 148.796L86.0425 149.696V149.926L98.2125 210.926L98.6225 212.456H98.5225L98.6225 212.926C98.6225 212.926 92.0525 217.926 85.9325 228.166C88.0925 233.686 92.3325 243.306 92.3325 243.306C92.7125 244.796 88.4125 250.896 90.8625 269.256C91.0425 270.576 91.3625 272.496 91.7325 274.566C102.672 263.506 117.592 248.456 127.592 237.306C128.082 234.436 129.592 224.986 128.712 217.766C127.832 210.546 124.592 175.126 124.592 175.126C127.722 173.169 130.461 170.65 132.673 167.696C134.544 165.296 135.834 162.497 136.443 159.516C138.123 154.776 139.509 149.937 140.592 145.026L91.3825 148.796Z" fill="black"/>
<path d="M110.573 350.616L117.123 348.466L115.203 344.016L111.073 347.536L110.573 350.616Z" fill="black"/>
<path d="M104.412 338.696C104.412 338.696 103.972 342.886 103.862 344.206C103.752 345.526 109.202 349.876 110.572 350.616L111.072 347.536C112.232 348.796 112.882 350.356 114.072 352.676C115.072 354.606 116.302 358.236 119.182 360.786C123.452 364.586 130.272 366.716 137.292 367.276C144.312 367.836 148.422 366.276 150.492 364.836C152.562 363.396 153.262 361.636 152.842 359.836C152.422 358.036 104.412 338.696 104.412 338.696Z" fill="#263238"/>
<path d="M123.852 325.196L124.042 322.766C125.342 322.766 125.342 326.316 127.102 329.486C129.472 333.756 132.982 339.126 136.462 342.576C143.312 349.386 149.462 353.746 152.562 356.806C156.662 360.906 148.902 366.806 137.452 365.676C131.762 365.106 121.762 361.806 119.062 358.316C116.362 354.826 114.832 349.496 112.662 346.956C110.492 344.416 105.662 341.736 104.412 338.696C103.702 337.036 104.282 333.246 104.882 330.026C105.442 327.026 104.312 322.326 105.972 322.766L106.222 324.496C106.852 325.826 109.552 328.036 114.122 329.016C116.402 329.496 123.232 329.996 123.852 325.196Z" fill="#455A64"/>
<path opacity="0.15" d="M117.802 329.306C120.002 329.206 122.402 328.586 123.402 326.646V326.586C123.239 327.421 123.269 328.283 123.491 329.105C123.713 329.926 124.121 330.686 124.682 331.326C126.682 333.816 138.882 351.326 138.882 351.326C138.882 351.326 127.412 336.836 125.202 334.106C121.952 330.106 120.883 329.566 117.753 329.316L117.802 329.306Z" fill="black"/>
<path d="M152.593 356.806C150.013 354.216 145.193 350.706 139.593 345.576C140.743 347.576 142.453 349.156 142.593 349.806C142.973 351.416 138.153 353.426 135.243 354.066C132.333 354.706 129.243 350.446 125.173 346.536C121.103 342.626 117.173 346.816 115.513 351.976C116.466 354.208 117.653 356.333 119.053 358.316C121.753 361.806 131.753 365.106 137.443 365.676C148.903 366.806 156.663 360.906 152.593 356.806Z" fill="#37474F"/>
<path opacity="0.15" d="M120.482 333.906C120.455 334.09 120.355 334.256 120.205 334.366C120.055 334.477 119.867 334.523 119.682 334.496C119.498 334.468 119.332 334.368 119.222 334.218C119.111 334.068 119.065 333.88 119.092 333.696C119.105 333.604 119.135 333.515 119.182 333.435C119.23 333.355 119.292 333.285 119.367 333.23C119.442 333.175 119.527 333.136 119.617 333.114C119.707 333.093 119.801 333.09 119.892 333.106C120.076 333.135 120.241 333.235 120.351 333.385C120.461 333.535 120.508 333.721 120.482 333.906V333.906Z" fill="black"/>
<path opacity="0.15" d="M123.703 337.796C123.69 337.888 123.66 337.976 123.613 338.056C123.565 338.136 123.503 338.206 123.428 338.261C123.353 338.316 123.268 338.355 123.178 338.377C123.088 338.398 122.994 338.401 122.903 338.386C122.766 338.364 122.639 338.303 122.537 338.21C122.435 338.116 122.363 337.995 122.33 337.861C122.297 337.727 122.305 337.586 122.352 337.456C122.399 337.326 122.483 337.213 122.594 337.131C122.706 337.048 122.839 337.001 122.977 336.995C123.115 336.988 123.252 337.023 123.37 337.094C123.489 337.165 123.583 337.269 123.643 337.394C123.702 337.519 123.723 337.659 123.703 337.796V337.796Z" fill="black"/>
<path opacity="0.15" d="M126.932 341.696C126.903 341.88 126.802 342.045 126.651 342.155C126.5 342.265 126.312 342.31 126.127 342.281C125.943 342.252 125.778 342.15 125.668 341.999C125.559 341.848 125.513 341.66 125.542 341.476C125.574 341.291 125.677 341.127 125.828 341.017C125.979 340.907 126.167 340.86 126.352 340.886C126.444 340.9 126.532 340.933 126.611 340.982C126.689 341.03 126.758 341.094 126.812 341.17C126.866 341.245 126.904 341.33 126.925 341.421C126.946 341.511 126.948 341.604 126.932 341.696V341.696Z" fill="black"/>
<path opacity="0.15" d="M130.163 345.586C130.133 345.77 130.032 345.935 129.881 346.045C129.73 346.155 129.542 346.2 129.358 346.171C129.173 346.141 129.008 346.04 128.898 345.889C128.789 345.738 128.743 345.55 128.773 345.366C128.787 345.274 128.819 345.187 128.868 345.108C128.916 345.029 128.979 344.961 129.054 344.906C129.129 344.852 129.213 344.813 129.303 344.791C129.393 344.77 129.486 344.766 129.578 344.781C129.669 344.795 129.756 344.827 129.835 344.876C129.914 344.924 129.982 344.987 130.037 345.062C130.091 345.137 130.13 345.221 130.152 345.311C130.173 345.401 130.177 345.494 130.163 345.586V345.586Z" fill="black"/>
<path opacity="0.15" d="M133.393 349.476C133.371 349.612 133.31 349.739 133.217 349.841C133.123 349.943 133.002 350.015 132.868 350.048C132.733 350.081 132.592 350.073 132.463 350.026C132.333 349.979 132.219 349.895 132.137 349.784C132.055 349.672 132.008 349.539 132.002 349.401C131.995 349.263 132.029 349.126 132.101 349.008C132.172 348.889 132.276 348.795 132.401 348.736C132.526 348.676 132.666 348.656 132.803 348.676C132.894 348.689 132.982 348.72 133.061 348.768C133.14 348.816 133.209 348.878 133.264 348.953C133.319 349.027 133.359 349.112 133.381 349.201C133.403 349.291 133.407 349.384 133.393 349.476V349.476Z" fill="black"/>
<path d="M119.752 334.086C119.682 334.077 119.617 334.041 119.572 333.986C119.521 333.932 119.492 333.86 119.492 333.786C119.492 333.711 119.521 333.639 119.572 333.586C119.722 333.456 123.242 330.346 127.652 330.786C127.689 330.789 127.725 330.8 127.758 330.818C127.79 330.836 127.819 330.859 127.842 330.888C127.865 330.917 127.883 330.95 127.893 330.986C127.903 331.021 127.907 331.059 127.902 331.096C127.895 331.171 127.858 331.24 127.8 331.289C127.742 331.337 127.668 331.361 127.592 331.356C123.432 330.936 119.982 333.976 119.952 334.006C119.897 334.055 119.826 334.083 119.752 334.086Z" fill="#263238"/>
<path d="M122.982 337.956C122.948 337.955 122.913 337.947 122.882 337.931C122.851 337.916 122.824 337.893 122.802 337.866C122.751 337.812 122.722 337.74 122.722 337.666C122.722 337.591 122.751 337.52 122.802 337.466C122.952 337.336 126.472 334.226 130.882 334.666C130.919 334.669 130.955 334.68 130.988 334.698C131.02 334.716 131.049 334.74 131.072 334.768C131.095 334.797 131.113 334.83 131.123 334.866C131.133 334.902 131.137 334.939 131.132 334.976C131.125 335.051 131.088 335.12 131.03 335.169C130.972 335.217 130.898 335.241 130.822 335.236C126.672 334.816 123.212 337.856 123.182 337.886C123.156 337.911 123.124 337.93 123.09 337.942C123.055 337.954 123.019 337.959 122.982 337.956V337.956Z" fill="#263238"/>
<path d="M126.202 341.866C126.137 341.857 126.077 341.825 126.032 341.776C126.005 341.75 125.982 341.719 125.967 341.685C125.952 341.651 125.944 341.613 125.944 341.576C125.944 341.538 125.952 341.501 125.967 341.466C125.982 341.432 126.005 341.401 126.032 341.376C126.182 341.246 129.692 338.126 134.102 338.576C134.177 338.584 134.245 338.621 134.292 338.679C134.339 338.737 134.36 338.811 134.352 338.886C134.345 338.96 134.307 339.028 134.249 339.075C134.191 339.122 134.117 339.144 134.042 339.136C129.882 338.716 126.432 341.766 126.402 341.796C126.347 341.843 126.276 341.868 126.202 341.866V341.866Z" fill="#263238"/>
<path d="M129.433 345.756C129.367 345.747 129.307 345.715 129.263 345.666C129.236 345.64 129.215 345.609 129.2 345.574C129.186 345.54 129.178 345.503 129.178 345.466C129.178 345.428 129.186 345.392 129.2 345.357C129.215 345.323 129.236 345.292 129.263 345.266C129.403 345.136 132.923 342.016 137.333 342.466C137.405 342.476 137.471 342.514 137.516 342.572C137.561 342.63 137.581 342.703 137.573 342.776C137.57 342.813 137.56 342.85 137.543 342.883C137.526 342.916 137.502 342.945 137.473 342.969C137.443 342.992 137.41 343.01 137.374 343.019C137.337 343.029 137.3 343.031 137.263 343.026C133.113 342.606 129.663 345.656 129.623 345.686C129.597 345.71 129.567 345.728 129.535 345.74C129.502 345.752 129.467 345.757 129.433 345.756V345.756Z" fill="#263238"/>
<path d="M132.662 349.646C132.628 349.645 132.593 349.637 132.562 349.621C132.531 349.606 132.504 349.583 132.482 349.556C132.431 349.502 132.402 349.43 132.402 349.356C132.402 349.281 132.431 349.21 132.482 349.156C132.622 349.026 136.142 345.916 140.552 346.356C140.625 346.366 140.691 346.404 140.736 346.462C140.781 346.52 140.801 346.593 140.792 346.666C140.79 346.703 140.78 346.74 140.763 346.774C140.746 346.808 140.722 346.838 140.693 346.862C140.664 346.886 140.63 346.904 140.594 346.915C140.558 346.926 140.52 346.93 140.482 346.926C136.332 346.506 132.882 349.546 132.842 349.576C132.794 349.621 132.729 349.646 132.662 349.646V349.646Z" fill="#263238"/>
<path d="M74.3425 135.766C74.3425 135.766 73.9925 151.766 74.0625 158.946C74.2025 173.686 77.0625 179.756 80.7025 192.156C83.7025 202.216 95.7725 239.156 96.7025 242.726C95.4225 250.526 94.0725 257.426 96.7025 274.456C100.473 299.036 104.703 328.226 104.703 328.226C106.953 331.346 122.293 332.476 126.753 327.956C126.753 327.956 128.073 249.316 127.593 233.246C127.183 219.246 120.663 173.476 120.663 173.476C120.663 173.476 141.563 164.686 143.363 140.096L74.3425 135.766Z" fill="#263238"/>
<path d="M100.393 52.5657C100.393 52.5657 123.292 54.1157 136.232 60.0957C139.122 61.4257 147.722 72.6957 146.702 88.2257C144.122 127.346 145.152 149.106 145.152 149.106C144.442 151.106 137.022 161.906 116.542 163.846C95.4425 165.846 83.5425 163.666 73.6225 154.956C73.6925 138.346 73.9825 117.136 74.1625 102.886C74.3025 91.8857 74.4725 84.8857 75.7525 77.1057C76.6025 71.9357 78.7525 64.2057 82.3025 62.2157C86.3015 59.9361 90.4511 57.9315 94.7225 56.2157C96.8451 55.4052 98.7759 54.1622 100.393 52.5657V52.5657Z" fill="#FAFAFA"/>
<path d="M100.772 53.5957C104.002 53.8457 124.172 55.5957 135.772 60.9957C138.412 62.2157 146.652 73.0657 145.652 88.1557C143.242 124.806 144.002 146.516 144.102 148.936C143.692 149.826 141.852 152.686 137.632 155.676C133.802 158.396 127.012 161.846 116.402 162.856C111.542 163.316 107.342 163.546 103.562 163.546C90.6425 163.546 81.9325 160.836 74.5625 154.546C74.6225 139.836 74.8625 121.376 75.0325 107.866L75.0925 102.936C75.2325 92.1157 75.4125 84.9357 76.6725 77.3057C77.6725 71.4057 79.9025 64.7257 82.7325 63.1257C86.6939 60.8468 90.8069 58.8421 95.0425 57.1257C97.1398 56.3159 99.064 55.1145 100.713 53.5857L100.772 53.5957ZM100.332 52.5857C98.7159 54.1822 96.7851 55.4252 94.6625 56.2357C90.3911 57.9515 86.2415 59.9561 82.2425 62.2357C78.7325 64.2357 76.5425 71.9557 75.6925 77.1257C74.4125 84.8757 74.2425 91.9557 74.1025 102.906C73.9225 117.156 73.6325 138.366 73.5625 154.976C81.2325 161.726 90.1225 164.556 103.562 164.556C107.463 164.556 111.743 164.316 116.493 163.866C136.972 161.926 144.392 151.116 145.102 149.126C145.102 149.126 144.102 127.366 146.652 88.2457C147.652 72.7157 139.072 61.4457 136.182 60.1157C123.242 54.1157 100.342 52.5857 100.342 52.5857H100.332Z" fill="#E0E0E0"/>
<path d="M100.843 8.52569C94.6325 15.5257 96.6425 23.7857 98.8425 32.0657C101.443 41.4957 101.603 44.5457 107.023 46.9057C105.803 17.2957 115.262 53.5757 139.022 30.5557C143.312 26.3957 143.582 13.5557 138.382 7.67569C131.032 -0.584313 112.983 -4.69431 100.843 8.52569Z" fill="#37474F"/>
<path d="M99.5925 41.3657C103.912 43.1657 105.872 40.1957 105.872 40.1957L102.052 51.1957C102.052 51.1957 99.5925 58.0157 105.152 61.3057C120.532 70.5457 117.053 74.4357 122.253 78.9257C124.013 76.7157 123.782 66.8157 124.062 64.2057L127.432 53.6157C129.189 53.6769 130.948 53.5967 132.693 53.3757C136.813 52.7957 139.143 49.8657 140.443 45.4457C142.513 38.3257 142.202 27.5857 139.652 13.6757C135.102 10.0857 120.022 9.30568 110.272 15.3057C110.622 23.4857 108.402 24.8157 108.402 28.3057C108.402 32.2557 108.132 33.1657 106.922 33.6957C105.712 34.2257 104.633 32.3757 104.143 31.2157C103.323 29.2157 102.622 27.9957 100.692 27.5157C98.7625 27.0357 96.6025 27.3457 94.8325 29.9457C92.0925 33.9857 96.4125 40.0657 99.5925 41.3657Z" fill="#FFA8A7"/>
<path d="M127.432 53.6557C122.562 53.4157 115.723 50.8557 112.963 48.2757C110.203 45.6957 108.402 40.6757 108.402 40.6757C108.53 44.0887 109.766 47.3674 111.923 50.0157C115.523 54.3957 126.413 56.8657 126.413 56.8657L127.432 53.6557Z" fill="#F28F8F"/>
<path d="M124.843 17.6157C124.713 17.6157 124.552 17.6957 124.542 17.8257C124.532 17.9557 124.672 17.9957 124.772 18.0557C124.94 18.1507 125.1 18.2577 125.253 18.3757C125.412 18.485 125.545 18.6285 125.643 18.7957C125.697 18.9241 125.738 19.0583 125.763 19.1957C125.794 19.4211 125.811 19.6482 125.813 19.8757C125.813 20.0657 125.973 20.1957 126.153 20.0357C126.219 19.9753 126.271 19.8999 126.303 19.8157C126.409 19.5633 126.454 19.289 126.432 19.0157C126.413 18.8643 126.372 18.7163 126.313 18.5757C126.186 18.2914 125.98 18.0496 125.719 17.8793C125.458 17.7091 125.154 17.6176 124.843 17.6157V17.6157ZM132.283 17.9157C132.3 17.8426 132.297 17.7662 132.275 17.6942C132.254 17.6223 132.214 17.5573 132.159 17.5057C132.104 17.4541 132.037 17.4177 131.964 17.4002C131.891 17.3826 131.815 17.3846 131.742 17.4057C131.496 17.525 131.279 17.697 131.106 17.9095C130.933 18.1221 130.809 18.37 130.742 18.6357C130.593 18.9943 130.552 19.3885 130.623 19.7703C130.694 20.152 130.874 20.5049 131.143 20.7857C131.233 20.8657 131.363 20.9357 131.453 20.8757C131.543 20.8157 131.452 19.8757 131.522 19.6657C131.534 19.3134 131.634 18.9696 131.813 18.6657C131.933 18.4357 132.203 18.2157 132.283 17.9157ZM128.233 16.1657C128.216 16.1538 128.196 16.146 128.175 16.1431C128.155 16.1402 128.134 16.1423 128.114 16.1491C128.095 16.156 128.077 16.1674 128.063 16.1825C128.049 16.1976 128.038 16.2158 128.033 16.2357C128.011 16.3268 128.01 16.4214 128.029 16.5129C128.048 16.6045 128.087 16.6908 128.143 16.7657C128.234 16.9564 128.311 17.1536 128.373 17.3557C128.505 17.7599 128.579 18.1808 128.593 18.6057C128.601 19.004 128.574 19.4022 128.513 19.7957C128.453 20.1657 128.343 20.5257 128.283 20.8957C128.283 20.8957 128.283 21.0357 128.363 20.9957C128.654 20.7033 128.877 20.3498 129.015 19.9607C129.154 19.5716 129.204 19.1566 129.163 18.7457C129.158 18.2847 129.087 17.8267 128.953 17.3857C128.847 16.9135 128.595 16.4865 128.233 16.1657V16.1657Z" fill="#F28F8F"/>
<path d="M119.463 21.0557L123.863 19.3657C124.077 19.9659 124.051 20.6257 123.79 21.2072C123.529 21.7886 123.053 22.2467 122.463 22.4857C122.172 22.5959 121.863 22.6461 121.552 22.6333C121.242 22.6205 120.937 22.5451 120.657 22.4114C120.377 22.2778 120.126 22.0888 119.921 21.8558C119.716 21.6228 119.56 21.3506 119.463 21.0557V21.0557Z" fill="#37474F"/>
<path d="M133.443 18.6957L137.703 20.7957C137.58 21.0805 137.401 21.3373 137.175 21.5504C136.95 21.7635 136.684 21.9284 136.393 22.0351C136.102 22.1418 135.792 22.188 135.482 22.1709C135.173 22.1538 134.87 22.0738 134.593 21.9357C134.021 21.647 133.583 21.1493 133.369 20.546C133.154 19.9427 133.181 19.28 133.443 18.6957V18.6957Z" fill="#37474F"/>
<path d="M123.863 25.5957C123.453 24.5957 122.863 26.0057 121.663 26.5057C120.463 27.0057 119.153 26.3857 119.563 27.3757C119.866 27.8352 120.32 28.1747 120.846 28.3361C121.372 28.4974 121.938 28.4705 122.447 28.2599C122.956 28.0494 123.375 27.6683 123.633 27.1822C123.892 26.696 123.973 26.1351 123.863 25.5957V25.5957Z" fill="#263238"/>
<path d="M137.732 26.5757C137.982 25.5757 136.732 26.3257 135.422 26.0357C134.112 25.7457 133.422 24.4757 133.202 25.5157C133.169 26.0716 133.333 26.6214 133.666 27.068C133.998 27.5146 134.478 27.8291 135.02 27.956C135.563 28.0829 136.132 28.0139 136.629 27.7613C137.125 27.5087 137.516 27.0887 137.732 26.5757V26.5757Z" fill="#263238"/>
<path d="M127.272 23.2057L129.052 36.2057L135.532 34.7057C134.102 30.9357 130.082 24.9257 127.272 23.2057Z" fill="#F28F8F"/>
<path d="M124.303 39.2357C124.002 39.4217 123.748 39.675 123.563 39.9757C122.993 40.9157 123.803 41.3957 124.663 41.4757C125.61 41.5645 126.532 41.829 127.382 42.2557C127.746 42.5185 128.184 42.6586 128.632 42.6557C128.775 42.6351 128.912 42.5865 129.036 42.5127C129.159 42.4389 129.267 42.3414 129.352 42.2257C129.483 41.9806 129.532 41.7005 129.492 41.4257C129.406 40.8682 129.177 40.3427 128.826 39.9009C128.476 39.459 128.016 39.1161 127.492 38.9057C126.971 38.7127 126.412 38.6421 125.859 38.6993C125.306 38.7565 124.773 38.9401 124.303 39.2357V39.2357Z" fill="#B16668"/>
<path d="M127.382 42.3057C127.583 42.4209 127.79 42.5244 128.003 42.6157C127.792 41.7268 127.289 40.9342 126.575 40.3649C125.861 39.7956 124.976 39.4825 124.063 39.4757C123.863 39.6262 123.693 39.8127 123.563 40.0257C122.993 40.9657 123.803 41.4457 124.663 41.5257C125.61 41.6145 126.532 41.8791 127.382 42.3057V42.3057Z" fill="#F28F8F"/>
<path d="M120.453 85.3957C115.763 82.1357 106.983 74.9457 99.7025 53.6057L96.8225 55.6057C96.8225 55.6057 101.443 77.5357 119.753 88.6757L120.453 85.3957Z" fill="#BA68C8"/>
<path d="M124.932 84.9756C126.282 83.1356 129.393 70.6056 126.283 57.1456L128.833 59.5956C131.453 72.7456 128.613 84.9856 126.163 88.6556L124.932 84.9756Z" fill="#BA68C8"/>
<path d="M124.722 91.7757C124.722 91.7757 130.232 130.496 130.452 134.296C130.672 138.096 124.702 147.296 123.892 147.806C123.082 148.316 117.732 139.306 117.662 136.306C117.592 133.306 121.532 91.7657 121.532 91.7657L124.722 91.7757Z" fill="#BA68C8"/>
<path d="M124.933 84.9757C123.429 84.7011 121.879 84.8464 120.453 85.3957C119.613 86.9057 119.313 89.2457 119.973 90.3457C120.633 91.4457 121.873 93.1457 123.393 93.0757C124.913 93.0057 126.193 91.0757 126.393 89.2257C126.593 87.2257 124.933 84.9757 124.933 84.9757Z" fill="#BA68C8"/>
<path opacity="0.2" d="M124.933 84.9757C123.429 84.7011 121.879 84.8464 120.453 85.3957C119.613 86.9057 119.313 89.2457 119.973 90.3457C120.633 91.4457 121.873 93.1457 123.393 93.0757C124.913 93.0057 126.193 91.0757 126.393 89.2257C126.593 87.2257 124.933 84.9757 124.933 84.9757Z" fill="white"/>
<path d="M122.182 78.9657C119.492 75.8957 118.553 66.6657 116.563 65.1157C114.573 63.5657 103.022 56.5057 101.932 51.4357L103.213 47.7457C101.833 47.1157 99.9725 51.5257 94.7225 56.2157C94.7225 56.2157 94.0725 61.5757 98.0925 67.6657C102.823 74.8557 106.972 77.2657 106.972 77.2657C106.972 77.2657 112.753 69.8057 113.703 69.5157C114.653 69.2257 118.962 77.8657 122.182 78.9657Z" fill="#F0F0F0"/>
<path d="M122.182 78.9657C123.622 76.4457 123.393 66.0857 123.803 64.7157C124.663 61.8357 127.193 54.3857 127.193 54.3857C127.617 54.7114 127.999 55.0875 128.333 55.5057C133.113 61.6857 132.962 70.6057 131.652 73.3557C130.272 70.4257 126.992 66.6457 126.402 67.3557C125.812 68.0657 124.652 77.7357 122.182 78.9657Z" fill="#F0F0F0"/>
<path d="M104.323 205.506L106.662 253.146C106.772 255.456 105.212 256.866 103.272 258.146L98.4025 261.306C97.8647 261.74 97.2401 262.054 96.5708 262.226C95.9016 262.399 95.2031 262.426 94.5225 262.306C93.5711 262.099 92.6526 261.762 91.7925 261.306C91.7598 261.315 91.7252 261.315 91.6925 261.306L91.4125 261.156L38.7525 234.156C36.8612 233.187 35.2589 231.737 34.1071 229.952C32.9553 228.166 32.2949 226.108 32.1925 223.986L30.0625 180.606C30.0659 180.064 30.1972 179.531 30.4457 179.05C30.6942 178.568 31.0529 178.152 31.4925 177.836L39.7925 172.486C40.2602 172.217 40.7853 172.063 41.3244 172.036C41.8634 172.01 42.401 172.113 42.8925 172.336L102.592 202.896C103.066 203.158 103.465 203.537 103.753 203.996C104.067 204.443 104.263 204.962 104.323 205.506V205.506Z" fill="#37474F"/>
<path d="M104.322 205.506L106.662 253.146C106.772 255.456 105.212 256.866 103.272 258.146L98.4025 261.306C97.8646 261.74 97.2401 262.054 96.5708 262.226C95.9016 262.399 95.2031 262.426 94.5225 262.306C93.5711 262.099 92.6525 261.762 91.7925 261.306V261.306C93.7925 262.146 95.3625 261.026 95.2425 258.666L93.0425 213.786C92.9728 212.966 92.694 212.177 92.2325 211.496L103.792 204.046C104.085 204.482 104.267 204.983 104.322 205.506V205.506Z" fill="#263238"/>
<path d="M93.0425 213.736C92.9628 212.915 92.6902 212.125 92.2471 211.43C91.8039 210.735 91.2027 210.154 90.4925 209.736L34.0325 180.736C31.8025 179.586 30.0325 180.736 30.2025 183.206L32.2025 223.816C32.3052 225.939 32.9656 227.998 34.1173 229.786C35.2689 231.573 36.8711 233.025 38.7625 233.996L91.4225 260.996C93.6525 262.146 95.4225 260.996 95.2525 258.526L93.0425 213.736Z" fill="#455A64"/>
<path d="M37.1025 174.096L96.9625 205.166C97.8057 205.607 98.5194 206.261 99.0331 207.062C99.5469 207.864 99.8431 208.785 99.8925 209.736L102.302 258.736L101.442 259.296L99.0025 209.746C98.9602 208.951 98.7121 208.181 98.2826 207.512C97.8531 206.842 97.2569 206.296 96.5525 205.926L36.2425 174.626L37.1025 174.096Z" fill="#BA68C8"/>
<path opacity="0.2" d="M99.0325 207.066C99.5476 207.865 99.8442 208.786 99.8925 209.736L102.302 258.736L101.442 259.296L99.0025 209.746C98.9637 208.952 98.7152 208.183 98.2825 207.516L99.0325 207.066Z" fill="black"/>
<path opacity="0.2" d="M98.2825 207.546C97.8568 206.872 97.2598 206.323 96.5525 205.956L36.2425 174.656L37.1025 174.096L96.9625 205.166C97.8035 205.612 98.5162 206.266 99.0325 207.066" fill="black"/>
<path d="M58.0725 179.176L58.4325 186.546L55.5925 188.356L55.1125 178.556C55.1125 178.056 55.4225 177.836 55.8725 178.066L58.0725 179.176Z" fill="#BA68C8"/>
<path opacity="0.4" d="M58.0725 179.176L58.4325 186.546L55.5925 188.356L55.1125 178.556C55.1125 178.056 55.4225 177.836 55.8725 178.066L58.0725 179.176Z" fill="black"/>
<path d="M78.7025 185.466L79.2925 197.406L76.5925 199.136L74.6925 198.136L74.2025 188.336C74.1741 188.063 74.0825 187.801 73.9349 187.57C73.7874 187.339 73.5879 187.146 73.3525 187.006L58.9225 179.606L55.9225 178.066C55.4725 177.836 55.1325 178.066 55.1625 178.556L55.6425 188.356L53.7325 187.356L53.1425 175.416C53.1375 175.363 53.1375 175.309 53.1425 175.256C53.1661 175.008 53.2426 174.768 53.3669 174.553C53.4911 174.337 53.6601 174.15 53.8625 174.006L55.0025 173.266C55.245 173.134 55.5146 173.06 55.7905 173.049C56.0663 173.039 56.3408 173.092 56.5925 173.206L77.8525 184.136C78.0901 184.273 78.2912 184.466 78.4391 184.697C78.5869 184.929 78.6773 185.192 78.7025 185.466V185.466Z" fill="#BA68C8"/>
<path opacity="0.2" d="M76.0325 187.196L76.5925 199.136L74.6925 198.136L74.2025 188.336C74.1741 188.063 74.0825 187.801 73.9349 187.57C73.7874 187.339 73.5879 187.146 73.3525 187.006L58.9225 179.606L55.9225 178.066C55.4725 177.836 55.1325 178.066 55.1625 178.556L55.6425 188.356L53.7325 187.356L53.1425 175.416C53.1375 175.363 53.1375 175.309 53.1425 175.256C53.1925 174.866 53.5025 174.716 53.9025 174.916L75.1725 185.846C75.4118 185.987 75.6144 186.184 75.7638 186.418C75.9132 186.653 76.0053 186.919 76.0325 187.196V187.196Z" fill="black"/>
<path d="M66.0125 178.046L75.0725 182.706C75.0371 181.289 74.6227 179.908 73.8725 178.706C72.8725 177.706 68.8725 173.706 67.5325 174.116C66.9025 174.306 66.3125 176.046 66.0125 178.046Z" fill="#F28F8F"/>
<path d="M66.0125 183.306C66.0814 183.587 66.1751 183.861 66.2925 184.126C67.2435 185.887 68.5595 187.424 70.1525 188.636C71.262 188.347 72.2673 187.751 73.0525 186.916L66.0125 183.306Z" fill="#F28F8F"/>
<path d="M79.9625 66.5557C73.3825 69.4457 68.6125 74.4957 65.2125 85.2257C61.8125 95.9557 57.6525 108.696 55.9925 119.866C54.3325 131.036 52.8825 154.366 52.4725 161.596C52.1962 164.51 52.1193 167.441 52.2425 170.366C52.5412 173.676 53.0725 176.96 53.8325 180.196C53.9508 180.959 54.2591 181.681 54.7291 182.294C55.1992 182.908 55.8159 183.393 56.5225 183.706C56.9233 183.812 57.3121 183.959 57.6825 184.146C58.3525 184.556 58.6825 185.376 59.2125 185.936C59.8936 186.545 60.7785 186.877 61.6925 186.866C62.1025 186.866 62.5125 186.866 62.9125 186.916C64.4025 187.136 65.4925 188.456 66.9125 188.916C67.9602 189.371 69.144 189.399 70.2125 188.996C70.762 188.711 71.2842 188.376 71.7725 187.996C72.0425 187.796 72.7725 187.066 73.0025 186.856C71.0025 187.036 69.5325 185.376 68.7725 183.856C67.9095 182.032 67.4264 180.052 67.3525 178.036C67.3175 177.56 67.3857 177.082 67.5525 176.636C67.5913 176.526 67.6592 176.429 67.7491 176.355C67.839 176.281 67.9473 176.233 68.0625 176.216C68.3225 176.216 68.4925 176.466 68.6325 176.686C69.4269 178.268 70.5125 179.686 71.8325 180.866C72.3797 181.371 73.0885 181.665 73.8325 181.696C74.1978 181.699 74.5508 181.564 74.8201 181.317C75.0893 181.07 75.2546 180.73 75.2825 180.366C75.2496 180.075 75.1614 179.793 75.0225 179.536C74.0155 177.424 73.2022 175.225 72.5925 172.966C72.1359 170.847 71.4065 168.797 70.4225 166.866C69.3125 164.866 66.7125 162.146 66.9925 159.866C67.4525 155.956 74.6825 125.446 74.6825 125.446C74.6825 125.446 83.4025 98.7457 85.4925 91.6857C88.1125 82.9157 86.2825 71.6557 79.9625 66.5557Z" fill="#FFA8A7"/>
<path d="M82.3025 62.2157C71.7825 67.5757 69.2325 71.8057 66.3525 79.7757C63.7625 86.9057 58.0125 106.456 56.5725 113.416C54.0125 125.866 52.5725 149.676 52.5725 149.676C52.5725 149.676 53.8125 153.096 60.0425 154.596C66.2725 156.096 68.7625 154.186 68.7625 154.186L75.7625 123.946C75.7625 123.946 86.5925 98.8457 87.4725 95.3057C89.3025 88.1957 90.8125 67.0057 82.3025 62.2157Z" fill="#E6E6E6"/>
<path d="M162.383 42.2356C162.643 42.9056 162.773 43.6156 163.073 44.2356C163.368 44.8663 163.755 45.4494 164.223 45.9656C165.191 47.0389 166.524 47.7128 167.963 47.8556C171.033 48.1256 174.443 45.5656 173.743 42.2356C173.733 42.1586 173.739 42.0803 173.762 42.006C173.784 41.9317 173.822 41.863 173.873 41.8044C173.924 41.7458 173.987 41.6987 174.058 41.6662C174.128 41.6336 174.205 41.6164 174.283 41.6156C176.283 41.4156 177.393 39.3956 177.373 37.5156C177.445 36.5129 177.144 35.5188 176.527 34.7249C175.911 33.9309 175.022 33.3933 174.033 33.2156C173.606 33.1475 173.174 33.1241 172.743 33.1456C172.329 33.212 171.911 33.2488 171.493 33.2556C170.693 33.1856 170.613 32.1756 170.273 31.6156C169.921 30.9968 169.421 30.4747 168.819 30.0959C168.216 29.7172 167.529 29.4935 166.819 29.445C166.109 29.3965 165.398 29.5246 164.749 29.8178C164.101 30.1111 163.535 30.5604 163.103 31.1256C162.491 32.0147 162.125 33.0497 162.043 34.1256C162.043 34.2456 161.733 34.5956 161.663 34.3256C161.472 33.3315 161.604 32.3025 162.039 31.3887C162.475 30.4749 163.191 29.7241 164.083 29.2456C165.034 28.7104 166.127 28.4791 167.213 28.5828C168.3 28.6865 169.329 29.1201 170.163 29.8256C170.548 30.1416 170.885 30.5122 171.163 30.9256C171.311 31.1467 171.438 31.381 171.543 31.6256C171.603 31.7456 171.723 32.3056 171.823 32.3656C172.018 32.3695 172.212 32.3493 172.403 32.3056C172.653 32.3056 172.913 32.3056 173.163 32.3056C173.739 32.3017 174.313 32.3689 174.873 32.5056C175.939 32.7922 176.876 33.4318 177.532 34.32C178.187 35.2081 178.523 36.2924 178.483 37.3956C178.546 38.5234 178.226 39.6394 177.574 40.5619C176.922 41.4843 175.977 42.1589 174.893 42.4756C175.313 46.1556 171.663 48.9356 168.183 48.8456C166.452 48.7961 164.807 48.0795 163.593 46.8456C162.533 45.7856 161.353 43.9856 161.643 42.4256C161.673 42.0756 162.243 41.8656 162.383 42.2356Z" fill="#455A64"/>
<path d="M149.863 37.3057C151.454 36.8057 153.093 36.4706 154.753 36.3057L156.893 35.9657C157.64 35.8106 158.4 35.7203 159.163 35.6957C159.513 35.6957 159.313 36.1757 159.103 36.2557C158.321 36.5159 157.518 36.7067 156.703 36.8257L154.433 37.2257L152.263 37.5757C151.46 37.7403 150.64 37.8008 149.823 37.7557C149.593 37.7657 149.713 37.3757 149.863 37.3057Z" fill="#455A64"/>
<path d="M151.153 41.8856C151.438 41.7912 151.733 41.7308 152.033 41.7056C152.373 41.6556 152.703 41.6256 153.033 41.5956L154.783 41.4956C155.373 41.4956 155.953 41.4956 156.543 41.4356C157.239 41.367 157.94 41.3838 158.633 41.4856C158.963 41.5556 158.633 42.0256 158.463 42.0756C157.887 42.1706 157.306 42.2208 156.723 42.2256L154.903 42.3256L153.103 42.4356L152.263 42.4856C151.861 42.5407 151.454 42.5407 151.053 42.4856C150.783 42.3656 150.983 41.9556 151.153 41.8856Z" fill="#455A64"/>
</svg>
