<svg width="29" height="29" viewBox="0 0 29 29" fill="none" xmlns="http://www.w3.org/2000/svg">
<path d="M13.7931 17.4179C13.4025 17.8084 13.4025 18.4416 13.7931 18.8321C14.1836 19.2226 14.8167 19.2226 15.2073 18.8321L13.7931 17.4179ZM18.1252 14.5L18.8323 15.2071C19.2228 14.8166 19.2228 14.1834 18.8323 13.7929L18.1252 14.5ZM15.2073 10.1679C14.8167 9.77737 14.1836 9.77737 13.7931 10.1679C13.4025 10.5584 13.4025 11.1916 13.7931 11.5821L15.2073 10.1679ZM4.8335 13.5C4.28121 13.5 3.8335 13.9477 3.8335 14.5C3.8335 15.0523 4.28121 15.5 4.8335 15.5L4.8335 13.5ZM15.2073 18.8321L18.8323 15.2071L17.4181 13.7929L13.7931 17.4179L15.2073 18.8321ZM18.8323 13.7929L15.2073 10.1679L13.7931 11.5821L17.4181 15.2071L18.8323 13.7929ZM4.8335 15.5L18.1252 15.5V13.5L4.8335 13.5L4.8335 15.5Z" fill="white"/>
<path d="M10.875 8.45831V6.04165C10.875 5.3743 11.416 4.83331 12.0833 4.83331H22.9583C23.6257 4.83331 24.1667 5.3743 24.1667 6.04165V22.9583C24.1667 23.6257 23.6257 24.1666 22.9583 24.1666H12.0833C11.416 24.1666 10.875 23.6257 10.875 22.9583V20.5416" stroke="white" stroke-width="2" stroke-linecap="round" stroke-linejoin="round"/>
</svg>
