<svg width="25" height="25" viewBox="0 0 25 25" fill="none" xmlns="http://www.w3.org/2000/svg">
<path d="M5.71072 23.8001L6.57038 22.9678L2.83609 17.8156L1.97709 18.6471L0 24.9999L5.71072 23.8001Z" fill="#F2C385"/>
<path d="M0.439133 23.5884L0 24.9999L1.26956 24.7337C1.26956 24.7337 1.24299 24.3509 0.98456 23.9934C0.72613 23.6367 0.439133 23.5884 0.439133 23.5884Z" fill="#231F20"/>
<path d="M21.8191 8.1963L5.71067 23.8002C5.71067 23.8002 6.17306 23.4289 5.64889 22.7062C5.12472 21.9828 4.69555 22.3994 4.69555 22.3994C4.69555 22.3994 4.95797 21.5632 4.35408 20.7293C3.74953 19.8962 2.99217 20.0488 2.99217 20.0488C2.99217 20.0488 3.28315 19.5034 2.92241 19.007C2.563 18.5099 1.97705 18.6472 1.97705 18.6472L18.0854 3.04333L21.8191 8.1963Z" fill="#F68712"/>
<path d="M20.8033 6.79462L4.69557 22.3993C4.69557 22.3993 4.92942 21.524 4.3541 20.7292C3.77877 19.9352 2.99219 20.0487 2.99219 20.0487L19.1006 4.44482L20.8033 6.79462Z" fill="#F9A72B"/>
<path d="M22.5174 7.51967L19.6713 10.2768C19.6713 10.2768 19.4673 8.6704 18.3685 7.15374C17.2697 5.63707 15.937 5.12385 15.937 5.12385L18.7831 2.3667C18.7831 2.3667 20.0859 2.8408 21.2139 4.39735C22.342 5.95391 22.5174 7.51967 22.5174 7.51967Z" fill="#D3D2D2"/>
<path d="M25 5.15297L22.154 7.91012C22.154 7.91012 21.95 6.3037 20.8505 4.78704C19.7517 3.27038 18.4197 2.75715 18.4197 2.75715L21.2657 0C21.2657 0 22.5692 0.474101 23.6966 2.03066C24.8246 3.58644 25 5.15297 25 5.15297Z" fill="#ED1C24"/>
<path d="M20.2346 9.73054C20.2346 9.73054 20.3741 10.0949 19.9835 10.388C19.7111 10.5921 19.6712 10.2768 19.6712 10.2768C19.6712 10.2768 19.4673 8.67034 18.3685 7.15367C17.2696 5.63701 15.9369 5.12379 15.9369 5.12379C15.9369 5.12379 15.7981 4.98186 15.9602 4.76552C16.198 4.44869 16.501 4.57757 16.501 4.57757C16.501 4.57757 17.8038 5.05091 18.9318 6.60746C20.0599 8.16401 20.2346 9.73054 20.2346 9.73054Z" fill="#A7A5A6"/>
<path d="M22.5173 7.5196C22.5173 7.5196 22.6561 7.884 22.2648 8.17782C21.9931 8.38188 21.9533 8.06582 21.9533 8.06582C21.9533 8.06582 21.7493 6.46017 20.6498 4.9435C19.5517 3.42684 18.2196 2.91361 18.2196 2.91361C18.2196 2.91361 18.0801 2.77169 18.2422 2.55459C18.4801 2.23775 18.783 2.36663 18.783 2.36663C18.783 2.36663 20.0858 2.84074 21.2138 4.39729C22.3419 5.95384 22.5173 7.5196 22.5173 7.5196Z" fill="#A7A5A6"/>
<path d="M21.3886 8.61361C21.3886 8.61361 21.5275 8.97724 21.1368 9.27106C20.8645 9.47512 20.8246 9.15982 20.8246 9.15982C20.8246 9.15982 20.62 7.5534 19.5218 6.03674C18.423 4.52008 17.091 4.00609 17.091 4.00609C17.091 4.00609 16.9515 3.86493 17.1136 3.64859C17.3514 3.33099 17.6543 3.46064 17.6543 3.46064C17.6543 3.46064 18.9571 3.93397 20.0852 5.49053C21.2132 7.04708 21.3886 8.61361 21.3886 8.61361Z" fill="#A7A5A6"/>
</svg>
