<svg width="88" height="28" viewBox="0 0 88 28" fill="none" xmlns="http://www.w3.org/2000/svg">
<path d="M22.26 10.1929H12.1523V13.0078H19.3198C18.9683 16.9443 15.4677 18.6377 12.1665 18.6377C11.6441 18.6377 11.1216 18.5937 10.6086 18.4969C10.0956 18.4046 9.59688 18.2638 9.11715 18.0747C8.63266 17.8855 8.17193 17.6568 7.73969 17.3797C7.30271 17.107 6.90372 16.7948 6.53323 16.4473C6.1675 16.0998 5.83976 15.7172 5.55002 15.3081C5.26503 14.8991 5.02278 14.4681 4.82329 14.0106C4.62855 13.5576 4.4813 13.087 4.38631 12.6032C4.29131 12.1194 4.24381 11.6355 4.25331 11.1429C4.25331 6.88098 7.76819 3.60423 12.176 3.60423C15.5769 3.60423 17.5766 5.63625 17.5766 5.63625L19.676 3.59544C19.676 3.59544 16.9829 0.780518 12.0668 0.780518C5.80651 0.780518 0.96167 5.73741 0.96167 11.0946C0.96167 16.3417 5.51677 21.457 12.2235 21.457C18.1228 21.457 22.4405 17.6656 22.4405 12.0578C22.4405 10.8746 22.2552 10.1929 22.2552 10.1929H22.26Z" fill="#4885ED"/>
<path d="M30.539 8.15234C26.3923 8.15234 23.4189 11.196 23.4189 14.7454C23.4189 18.3476 26.3021 21.444 30.5865 21.444C34.4671 21.444 37.6447 18.6643 37.6447 14.8202C37.6447 10.4263 33.9493 8.15234 30.539 8.15234ZM30.5817 10.7649C32.6194 10.7649 34.5526 12.3131 34.5526 14.807C34.5526 17.2437 32.6289 18.8358 30.5722 18.8358C28.3113 18.8358 26.5348 17.1381 26.5348 14.785C26.5348 12.4803 28.2923 10.7649 30.5865 10.7649H30.5817Z" fill="#DB3236"/>
<path d="M46.0233 8.15234C41.8767 8.15234 38.9033 11.196 38.9033 14.7454C38.9033 18.3476 41.7865 21.444 46.0708 21.444C49.9515 21.444 53.1291 18.6643 53.1291 14.8202C53.1291 10.4263 49.4337 8.15234 46.0233 8.15234ZM46.0613 10.7649C48.1038 10.7649 50.0322 12.3131 50.0322 14.807C50.0322 17.2437 48.1085 18.8358 46.0518 18.8358C43.7909 18.8358 42.0192 17.1381 42.0192 14.785C42.0192 12.4803 43.7767 10.7649 46.0708 10.7649H46.0613Z" fill="#F4C20D"/>
<path d="M61.2089 8.16113C57.4043 8.16113 54.4119 11.2883 54.4119 14.8026C54.4119 18.8006 57.8792 21.4572 61.1424 21.4572C63.1611 21.4572 64.2345 20.7051 65.0183 19.8386V21.1493C65.0183 23.4453 63.5316 24.8175 61.2944 24.8175C59.1332 24.8175 58.0455 23.3089 57.6608 22.4512L54.9391 23.5112C55.9033 25.4289 57.8507 27.4257 61.3181 27.4257C65.1133 27.4257 67.9869 25.1914 67.9869 20.4984V8.56138H65.0278V9.68735C64.1158 8.7637 62.8666 8.16113 61.2089 8.16113ZM61.4844 10.7649C63.3511 10.7649 65.2653 12.2604 65.2653 14.8158C65.2653 17.4108 63.3511 18.8446 61.4416 18.8446C59.4134 18.8446 57.523 17.2964 57.523 14.8422C57.523 12.2911 59.4847 10.7649 61.4844 10.7649Z" fill="#4885ED"/>
<path d="M81.2054 8.14307C77.6145 8.14307 74.5984 10.826 74.5984 14.7801C74.5984 18.9673 77.9613 21.4524 81.5427 21.4524C84.5398 21.4524 86.3875 19.9129 87.4752 18.5319L85.0243 17.0057C84.3926 17.9293 83.3286 18.8354 81.5569 18.8354C79.5667 18.8354 78.65 17.8106 78.0848 16.8209L87.5797 13.122L87.0952 12.04C86.1785 9.91559 84.0363 8.14307 81.2054 8.14307ZM81.3289 10.6985C82.6209 10.6985 83.5518 11.345 83.9508 12.1191L77.6098 14.6086C77.3343 12.6821 79.277 10.6985 81.3194 10.6985H81.3289Z" fill="#DB3236"/>
<path d="M70.0671 21.0566H73.183V1.46655H70.0671V21.0566Z" fill="#3CBA54"/>
</svg>
